<?xml version="1.0" encoding="utf-8" standalone="no"?>
<!DOCTYPE svg PUBLIC "-//W3C//DTD SVG 1.1//EN"
  "http://www.w3.org/Graphics/SVG/1.1/DTD/svg11.dtd">
<svg xmlns:xlink="http://www.w3.org/1999/xlink" width="2160pt" height="1080pt" viewBox="0 0 2160 1080" xmlns="http://www.w3.org/2000/svg" version="1.1">
 <metadata>
  <rdf:RDF xmlns:dc="http://purl.org/dc/elements/1.1/" xmlns:cc="http://creativecommons.org/ns#" xmlns:rdf="http://www.w3.org/1999/02/22-rdf-syntax-ns#">
   <cc:Work>
    <dc:type rdf:resource="http://purl.org/dc/dcmitype/StillImage"/>
    <dc:date>2025-06-18T15:07:48.612696</dc:date>
    <dc:format>image/svg+xml</dc:format>
    <dc:creator>
     <cc:Agent>
      <dc:title>Matplotlib v3.8.3, https://matplotlib.org/</dc:title>
     </cc:Agent>
    </dc:creator>
   </cc:Work>
  </rdf:RDF>
 </metadata>
 <defs>
  <style type="text/css">*{stroke-linejoin: round; stroke-linecap: butt}</style>
 </defs>
 <g id="figure_1">
  <g id="patch_1">
   <path d="M 0 1080 
L 2160 1080 
L 2160 0 
L 0 0 
z
" style="fill: #ffffff"/>
  </g>
  <g id="axes_1">
   <g id="patch_2">
    <path d="M 50.87 526.12 
L 707.88 526.12 
L 707.88 82.32 
L 50.87 82.32 
z
" style="fill: #ffffff"/>
   </g>
   <g id="matplotlib.axis_1">
    <g id="xtick_1">
     <g id="line2d_1">
      <defs>
       <path id="m66cf116772" d="M 0 0 
L 0 3.5 
" style="stroke: #000000; stroke-width: 0.8"/>
      </defs>
      <g>
       <use xlink:href="#m66cf116772" x="73.788953" y="526.12" style="stroke: #000000; stroke-width: 0.8"/>
      </g>
     </g>
     <g id="text_1">
      <!-- 0 -->
      <g transform="translate(70.607703 540.718438) scale(0.1 -0.1)">
       <defs>
        <path id="DejaVuSans-30" d="M 2034 4250 
Q 1547 4250 1301 3770 
Q 1056 3291 1056 2328 
Q 1056 1369 1301 889 
Q 1547 409 2034 409 
Q 2525 409 2770 889 
Q 3016 1369 3016 2328 
Q 3016 3291 2770 3770 
Q 2525 4250 2034 4250 
z
M 2034 4750 
Q 2819 4750 3233 4129 
Q 3647 3509 3647 2328 
Q 3647 1150 3233 529 
Q 2819 -91 2034 -91 
Q 1250 -91 836 529 
Q 422 1150 422 2328 
Q 422 3509 836 4129 
Q 1250 4750 2034 4750 
z
" transform="scale(0.015625)"/>
       </defs>
       <use xlink:href="#DejaVuSans-30"/>
      </g>
     </g>
    </g>
    <g id="xtick_2">
     <g id="line2d_2">
      <g>
       <use xlink:href="#m66cf116772" x="212.691702" y="526.12" style="stroke: #000000; stroke-width: 0.8"/>
      </g>
     </g>
     <g id="text_2">
      <!-- 20 -->
      <g transform="translate(206.329202 540.718438) scale(0.1 -0.1)">
       <defs>
        <path id="DejaVuSans-32" d="M 1228 531 
L 3431 531 
L 3431 0 
L 469 0 
L 469 531 
Q 828 903 1448 1529 
Q 2069 2156 2228 2338 
Q 2531 2678 2651 2914 
Q 2772 3150 2772 3378 
Q 2772 3750 2511 3984 
Q 2250 4219 1831 4219 
Q 1534 4219 1204 4116 
Q 875 4013 500 3803 
L 500 4441 
Q 881 4594 1212 4672 
Q 1544 4750 1819 4750 
Q 2544 4750 2975 4387 
Q 3406 4025 3406 3419 
Q 3406 3131 3298 2873 
Q 3191 2616 2906 2266 
Q 2828 2175 2409 1742 
Q 1991 1309 1228 531 
z
" transform="scale(0.015625)"/>
       </defs>
       <use xlink:href="#DejaVuSans-32"/>
       <use xlink:href="#DejaVuSans-30" x="63.623047"/>
      </g>
     </g>
    </g>
    <g id="xtick_3">
     <g id="line2d_3">
      <g>
       <use xlink:href="#m66cf116772" x="351.59445" y="526.12" style="stroke: #000000; stroke-width: 0.8"/>
      </g>
     </g>
     <g id="text_3">
      <!-- 40 -->
      <g transform="translate(345.23195 540.718438) scale(0.1 -0.1)">
       <defs>
        <path id="DejaVuSans-34" d="M 2419 4116 
L 825 1625 
L 2419 1625 
L 2419 4116 
z
M 2253 4666 
L 3047 4666 
L 3047 1625 
L 3713 1625 
L 3713 1100 
L 3047 1100 
L 3047 0 
L 2419 0 
L 2419 1100 
L 313 1100 
L 313 1709 
L 2253 4666 
z
" transform="scale(0.015625)"/>
       </defs>
       <use xlink:href="#DejaVuSans-34"/>
       <use xlink:href="#DejaVuSans-30" x="63.623047"/>
      </g>
     </g>
    </g>
    <g id="xtick_4">
     <g id="line2d_4">
      <g>
       <use xlink:href="#m66cf116772" x="490.497199" y="526.12" style="stroke: #000000; stroke-width: 0.8"/>
      </g>
     </g>
     <g id="text_4">
      <!-- 60 -->
      <g transform="translate(484.134699 540.718438) scale(0.1 -0.1)">
       <defs>
        <path id="DejaVuSans-36" d="M 2113 2584 
Q 1688 2584 1439 2293 
Q 1191 2003 1191 1497 
Q 1191 994 1439 701 
Q 1688 409 2113 409 
Q 2538 409 2786 701 
Q 3034 994 3034 1497 
Q 3034 2003 2786 2293 
Q 2538 2584 2113 2584 
z
M 3366 4563 
L 3366 3988 
Q 3128 4100 2886 4159 
Q 2644 4219 2406 4219 
Q 1781 4219 1451 3797 
Q 1122 3375 1075 2522 
Q 1259 2794 1537 2939 
Q 1816 3084 2150 3084 
Q 2853 3084 3261 2657 
Q 3669 2231 3669 1497 
Q 3669 778 3244 343 
Q 2819 -91 2113 -91 
Q 1303 -91 875 529 
Q 447 1150 447 2328 
Q 447 3434 972 4092 
Q 1497 4750 2381 4750 
Q 2619 4750 2861 4703 
Q 3103 4656 3366 4563 
z
" transform="scale(0.015625)"/>
       </defs>
       <use xlink:href="#DejaVuSans-36"/>
       <use xlink:href="#DejaVuSans-30" x="63.623047"/>
      </g>
     </g>
    </g>
    <g id="xtick_5">
     <g id="line2d_5">
      <g>
       <use xlink:href="#m66cf116772" x="629.399947" y="526.12" style="stroke: #000000; stroke-width: 0.8"/>
      </g>
     </g>
     <g id="text_5">
      <!-- 80 -->
      <g transform="translate(623.037447 540.718438) scale(0.1 -0.1)">
       <defs>
        <path id="DejaVuSans-38" d="M 2034 2216 
Q 1584 2216 1326 1975 
Q 1069 1734 1069 1313 
Q 1069 891 1326 650 
Q 1584 409 2034 409 
Q 2484 409 2743 651 
Q 3003 894 3003 1313 
Q 3003 1734 2745 1975 
Q 2488 2216 2034 2216 
z
M 1403 2484 
Q 997 2584 770 2862 
Q 544 3141 544 3541 
Q 544 4100 942 4425 
Q 1341 4750 2034 4750 
Q 2731 4750 3128 4425 
Q 3525 4100 3525 3541 
Q 3525 3141 3298 2862 
Q 3072 2584 2669 2484 
Q 3125 2378 3379 2068 
Q 3634 1759 3634 1313 
Q 3634 634 3220 271 
Q 2806 -91 2034 -91 
Q 1263 -91 848 271 
Q 434 634 434 1313 
Q 434 1759 690 2068 
Q 947 2378 1403 2484 
z
M 1172 3481 
Q 1172 3119 1398 2916 
Q 1625 2713 2034 2713 
Q 2441 2713 2670 2916 
Q 2900 3119 2900 3481 
Q 2900 3844 2670 4047 
Q 2441 4250 2034 4250 
Q 1625 4250 1398 4047 
Q 1172 3844 1172 3481 
z
" transform="scale(0.015625)"/>
       </defs>
       <use xlink:href="#DejaVuSans-38"/>
       <use xlink:href="#DejaVuSans-30" x="63.623047"/>
      </g>
     </g>
    </g>
    <g id="text_6">
     <!-- Time Frames -->
     <g transform="translate(331.364453 558.195781) scale(0.15 -0.15)">
      <defs>
       <path id="DejaVuSans-54" d="M -19 4666 
L 3928 4666 
L 3928 4134 
L 2272 4134 
L 2272 0 
L 1638 0 
L 1638 4134 
L -19 4134 
L -19 4666 
z
" transform="scale(0.015625)"/>
       <path id="DejaVuSans-69" d="M 603 3500 
L 1178 3500 
L 1178 0 
L 603 0 
L 603 3500 
z
M 603 4863 
L 1178 4863 
L 1178 4134 
L 603 4134 
L 603 4863 
z
" transform="scale(0.015625)"/>
       <path id="DejaVuSans-6d" d="M 3328 2828 
Q 3544 3216 3844 3400 
Q 4144 3584 4550 3584 
Q 5097 3584 5394 3201 
Q 5691 2819 5691 2113 
L 5691 0 
L 5113 0 
L 5113 2094 
Q 5113 2597 4934 2840 
Q 4756 3084 4391 3084 
Q 3944 3084 3684 2787 
Q 3425 2491 3425 1978 
L 3425 0 
L 2847 0 
L 2847 2094 
Q 2847 2600 2669 2842 
Q 2491 3084 2119 3084 
Q 1678 3084 1418 2786 
Q 1159 2488 1159 1978 
L 1159 0 
L 581 0 
L 581 3500 
L 1159 3500 
L 1159 2956 
Q 1356 3278 1631 3431 
Q 1906 3584 2284 3584 
Q 2666 3584 2933 3390 
Q 3200 3197 3328 2828 
z
" transform="scale(0.015625)"/>
       <path id="DejaVuSans-65" d="M 3597 1894 
L 3597 1613 
L 953 1613 
Q 991 1019 1311 708 
Q 1631 397 2203 397 
Q 2534 397 2845 478 
Q 3156 559 3463 722 
L 3463 178 
Q 3153 47 2828 -22 
Q 2503 -91 2169 -91 
Q 1331 -91 842 396 
Q 353 884 353 1716 
Q 353 2575 817 3079 
Q 1281 3584 2069 3584 
Q 2775 3584 3186 3129 
Q 3597 2675 3597 1894 
z
M 3022 2063 
Q 3016 2534 2758 2815 
Q 2500 3097 2075 3097 
Q 1594 3097 1305 2825 
Q 1016 2553 972 2059 
L 3022 2063 
z
" transform="scale(0.015625)"/>
       <path id="DejaVuSans-20" transform="scale(0.015625)"/>
       <path id="DejaVuSans-46" d="M 628 4666 
L 3309 4666 
L 3309 4134 
L 1259 4134 
L 1259 2759 
L 3109 2759 
L 3109 2228 
L 1259 2228 
L 1259 0 
L 628 0 
L 628 4666 
z
" transform="scale(0.015625)"/>
       <path id="DejaVuSans-72" d="M 2631 2963 
Q 2534 3019 2420 3045 
Q 2306 3072 2169 3072 
Q 1681 3072 1420 2755 
Q 1159 2438 1159 1844 
L 1159 0 
L 581 0 
L 581 3500 
L 1159 3500 
L 1159 2956 
Q 1341 3275 1631 3429 
Q 1922 3584 2338 3584 
Q 2397 3584 2469 3576 
Q 2541 3569 2628 3553 
L 2631 2963 
z
" transform="scale(0.015625)"/>
       <path id="DejaVuSans-61" d="M 2194 1759 
Q 1497 1759 1228 1600 
Q 959 1441 959 1056 
Q 959 750 1161 570 
Q 1363 391 1709 391 
Q 2188 391 2477 730 
Q 2766 1069 2766 1631 
L 2766 1759 
L 2194 1759 
z
M 3341 1997 
L 3341 0 
L 2766 0 
L 2766 531 
Q 2569 213 2275 61 
Q 1981 -91 1556 -91 
Q 1019 -91 701 211 
Q 384 513 384 1019 
Q 384 1609 779 1909 
Q 1175 2209 1959 2209 
L 2766 2209 
L 2766 2266 
Q 2766 2663 2505 2880 
Q 2244 3097 1772 3097 
Q 1472 3097 1187 3025 
Q 903 2953 641 2809 
L 641 3341 
Q 956 3463 1253 3523 
Q 1550 3584 1831 3584 
Q 2591 3584 2966 3190 
Q 3341 2797 3341 1997 
z
" transform="scale(0.015625)"/>
       <path id="DejaVuSans-73" d="M 2834 3397 
L 2834 2853 
Q 2591 2978 2328 3040 
Q 2066 3103 1784 3103 
Q 1356 3103 1142 2972 
Q 928 2841 928 2578 
Q 928 2378 1081 2264 
Q 1234 2150 1697 2047 
L 1894 2003 
Q 2506 1872 2764 1633 
Q 3022 1394 3022 966 
Q 3022 478 2636 193 
Q 2250 -91 1575 -91 
Q 1294 -91 989 -36 
Q 684 19 347 128 
L 347 722 
Q 666 556 975 473 
Q 1284 391 1588 391 
Q 1994 391 2212 530 
Q 2431 669 2431 922 
Q 2431 1156 2273 1281 
Q 2116 1406 1581 1522 
L 1381 1569 
Q 847 1681 609 1914 
Q 372 2147 372 2553 
Q 372 3047 722 3315 
Q 1072 3584 1716 3584 
Q 2034 3584 2315 3537 
Q 2597 3491 2834 3397 
z
" transform="scale(0.015625)"/>
      </defs>
      <use xlink:href="#DejaVuSans-54"/>
      <use xlink:href="#DejaVuSans-69" x="57.958984"/>
      <use xlink:href="#DejaVuSans-6d" x="85.742188"/>
      <use xlink:href="#DejaVuSans-65" x="183.154297"/>
      <use xlink:href="#DejaVuSans-20" x="244.677734"/>
      <use xlink:href="#DejaVuSans-46" x="276.464844"/>
      <use xlink:href="#DejaVuSans-72" x="326.734375"/>
      <use xlink:href="#DejaVuSans-61" x="367.847656"/>
      <use xlink:href="#DejaVuSans-6d" x="429.126953"/>
      <use xlink:href="#DejaVuSans-65" x="526.539062"/>
      <use xlink:href="#DejaVuSans-73" x="588.0625"/>
     </g>
    </g>
   </g>
   <g id="matplotlib.axis_2">
    <g id="ytick_1">
     <g id="line2d_6">
      <defs>
       <path id="mfa0431f4bd" d="M 0 0 
L -3.5 0 
" style="stroke: #000000; stroke-width: 0.8"/>
      </defs>
      <g>
       <use xlink:href="#mfa0431f4bd" x="50.87" y="455.957756" style="stroke: #000000; stroke-width: 0.8"/>
      </g>
     </g>
     <g id="text_7">
      <!-- 15 -->
      <g transform="translate(31.145 459.756974) scale(0.1 -0.1)">
       <defs>
        <path id="DejaVuSans-31" d="M 794 531 
L 1825 531 
L 1825 4091 
L 703 3866 
L 703 4441 
L 1819 4666 
L 2450 4666 
L 2450 531 
L 3481 531 
L 3481 0 
L 794 0 
L 794 531 
z
" transform="scale(0.015625)"/>
        <path id="DejaVuSans-35" d="M 691 4666 
L 3169 4666 
L 3169 4134 
L 1269 4134 
L 1269 2991 
Q 1406 3038 1543 3061 
Q 1681 3084 1819 3084 
Q 2600 3084 3056 2656 
Q 3513 2228 3513 1497 
Q 3513 744 3044 326 
Q 2575 -91 1722 -91 
Q 1428 -91 1123 -41 
Q 819 9 494 109 
L 494 744 
Q 775 591 1075 516 
Q 1375 441 1709 441 
Q 2250 441 2565 725 
Q 2881 1009 2881 1497 
Q 2881 1984 2565 2268 
Q 2250 2553 1709 2553 
Q 1456 2553 1204 2497 
Q 953 2441 691 2322 
L 691 4666 
z
" transform="scale(0.015625)"/>
       </defs>
       <use xlink:href="#DejaVuSans-31"/>
       <use xlink:href="#DejaVuSans-35" x="63.623047"/>
      </g>
     </g>
    </g>
    <g id="ytick_2">
     <g id="line2d_7">
      <g>
       <use xlink:href="#mfa0431f4bd" x="50.87" y="381.760249" style="stroke: #000000; stroke-width: 0.8"/>
      </g>
     </g>
     <g id="text_8">
      <!-- 20 -->
      <g transform="translate(31.145 385.559468) scale(0.1 -0.1)">
       <use xlink:href="#DejaVuSans-32"/>
       <use xlink:href="#DejaVuSans-30" x="63.623047"/>
      </g>
     </g>
    </g>
    <g id="ytick_3">
     <g id="line2d_8">
      <g>
       <use xlink:href="#mfa0431f4bd" x="50.87" y="307.562743" style="stroke: #000000; stroke-width: 0.8"/>
      </g>
     </g>
     <g id="text_9">
      <!-- 25 -->
      <g transform="translate(31.145 311.361962) scale(0.1 -0.1)">
       <use xlink:href="#DejaVuSans-32"/>
       <use xlink:href="#DejaVuSans-35" x="63.623047"/>
      </g>
     </g>
    </g>
    <g id="ytick_4">
     <g id="line2d_9">
      <g>
       <use xlink:href="#mfa0431f4bd" x="50.87" y="233.365236" style="stroke: #000000; stroke-width: 0.8"/>
      </g>
     </g>
     <g id="text_10">
      <!-- 30 -->
      <g transform="translate(31.145 237.164455) scale(0.1 -0.1)">
       <defs>
        <path id="DejaVuSans-33" d="M 2597 2516 
Q 3050 2419 3304 2112 
Q 3559 1806 3559 1356 
Q 3559 666 3084 287 
Q 2609 -91 1734 -91 
Q 1441 -91 1130 -33 
Q 819 25 488 141 
L 488 750 
Q 750 597 1062 519 
Q 1375 441 1716 441 
Q 2309 441 2620 675 
Q 2931 909 2931 1356 
Q 2931 1769 2642 2001 
Q 2353 2234 1838 2234 
L 1294 2234 
L 1294 2753 
L 1863 2753 
Q 2328 2753 2575 2939 
Q 2822 3125 2822 3475 
Q 2822 3834 2567 4026 
Q 2313 4219 1838 4219 
Q 1578 4219 1281 4162 
Q 984 4106 628 3988 
L 628 4550 
Q 988 4650 1302 4700 
Q 1616 4750 1894 4750 
Q 2613 4750 3031 4423 
Q 3450 4097 3450 3541 
Q 3450 3153 3228 2886 
Q 3006 2619 2597 2516 
z
" transform="scale(0.015625)"/>
       </defs>
       <use xlink:href="#DejaVuSans-33"/>
       <use xlink:href="#DejaVuSans-30" x="63.623047"/>
      </g>
     </g>
    </g>
    <g id="ytick_5">
     <g id="line2d_10">
      <g>
       <use xlink:href="#mfa0431f4bd" x="50.87" y="159.16773" style="stroke: #000000; stroke-width: 0.8"/>
      </g>
     </g>
     <g id="text_11">
      <!-- 35 -->
      <g transform="translate(31.145 162.966949) scale(0.1 -0.1)">
       <use xlink:href="#DejaVuSans-33"/>
       <use xlink:href="#DejaVuSans-35" x="63.623047"/>
      </g>
     </g>
    </g>
    <g id="ytick_6">
     <g id="line2d_11">
      <g>
       <use xlink:href="#mfa0431f4bd" x="50.87" y="84.970224" style="stroke: #000000; stroke-width: 0.8"/>
      </g>
     </g>
     <g id="text_12">
      <!-- 40 -->
      <g transform="translate(31.145 88.769442) scale(0.1 -0.1)">
       <use xlink:href="#DejaVuSans-34"/>
       <use xlink:href="#DejaVuSans-30" x="63.623047"/>
      </g>
     </g>
    </g>
    <g id="text_13">
     <!-- Amplitude -->
     <g transform="translate(24.025469 342.653984) rotate(-90) scale(0.15 -0.15)">
      <defs>
       <path id="DejaVuSans-41" d="M 2188 4044 
L 1331 1722 
L 3047 1722 
L 2188 4044 
z
M 1831 4666 
L 2547 4666 
L 4325 0 
L 3669 0 
L 3244 1197 
L 1141 1197 
L 716 0 
L 50 0 
L 1831 4666 
z
" transform="scale(0.015625)"/>
       <path id="DejaVuSans-70" d="M 1159 525 
L 1159 -1331 
L 581 -1331 
L 581 3500 
L 1159 3500 
L 1159 2969 
Q 1341 3281 1617 3432 
Q 1894 3584 2278 3584 
Q 2916 3584 3314 3078 
Q 3713 2572 3713 1747 
Q 3713 922 3314 415 
Q 2916 -91 2278 -91 
Q 1894 -91 1617 61 
Q 1341 213 1159 525 
z
M 3116 1747 
Q 3116 2381 2855 2742 
Q 2594 3103 2138 3103 
Q 1681 3103 1420 2742 
Q 1159 2381 1159 1747 
Q 1159 1113 1420 752 
Q 1681 391 2138 391 
Q 2594 391 2855 752 
Q 3116 1113 3116 1747 
z
" transform="scale(0.015625)"/>
       <path id="DejaVuSans-6c" d="M 603 4863 
L 1178 4863 
L 1178 0 
L 603 0 
L 603 4863 
z
" transform="scale(0.015625)"/>
       <path id="DejaVuSans-74" d="M 1172 4494 
L 1172 3500 
L 2356 3500 
L 2356 3053 
L 1172 3053 
L 1172 1153 
Q 1172 725 1289 603 
Q 1406 481 1766 481 
L 2356 481 
L 2356 0 
L 1766 0 
Q 1100 0 847 248 
Q 594 497 594 1153 
L 594 3053 
L 172 3053 
L 172 3500 
L 594 3500 
L 594 4494 
L 1172 4494 
z
" transform="scale(0.015625)"/>
       <path id="DejaVuSans-75" d="M 544 1381 
L 544 3500 
L 1119 3500 
L 1119 1403 
Q 1119 906 1312 657 
Q 1506 409 1894 409 
Q 2359 409 2629 706 
Q 2900 1003 2900 1516 
L 2900 3500 
L 3475 3500 
L 3475 0 
L 2900 0 
L 2900 538 
Q 2691 219 2414 64 
Q 2138 -91 1772 -91 
Q 1169 -91 856 284 
Q 544 659 544 1381 
z
M 1991 3584 
L 1991 3584 
z
" transform="scale(0.015625)"/>
       <path id="DejaVuSans-64" d="M 2906 2969 
L 2906 4863 
L 3481 4863 
L 3481 0 
L 2906 0 
L 2906 525 
Q 2725 213 2448 61 
Q 2172 -91 1784 -91 
Q 1150 -91 751 415 
Q 353 922 353 1747 
Q 353 2572 751 3078 
Q 1150 3584 1784 3584 
Q 2172 3584 2448 3432 
Q 2725 3281 2906 2969 
z
M 947 1747 
Q 947 1113 1208 752 
Q 1469 391 1925 391 
Q 2381 391 2643 752 
Q 2906 1113 2906 1747 
Q 2906 2381 2643 2742 
Q 2381 3103 1925 3103 
Q 1469 3103 1208 2742 
Q 947 2381 947 1747 
z
" transform="scale(0.015625)"/>
      </defs>
      <use xlink:href="#DejaVuSans-41"/>
      <use xlink:href="#DejaVuSans-6d" x="68.408203"/>
      <use xlink:href="#DejaVuSans-70" x="165.820312"/>
      <use xlink:href="#DejaVuSans-6c" x="229.296875"/>
      <use xlink:href="#DejaVuSans-69" x="257.080078"/>
      <use xlink:href="#DejaVuSans-74" x="284.863281"/>
      <use xlink:href="#DejaVuSans-75" x="324.072266"/>
      <use xlink:href="#DejaVuSans-64" x="387.451172"/>
      <use xlink:href="#DejaVuSans-65" x="450.927734"/>
     </g>
    </g>
   </g>
   <g id="line2d_12">
    <path d="M 80.734091 324.630683 
L 87.679228 392.258184 
L 94.624366 379.206993 
L 101.569503 388.280694 
L 108.514641 423.224005 
L 115.459778 427.253235 
L 122.404915 436.392658 
L 129.350053 338.535526 
L 136.29519 270.769957 
L 143.240328 283.286371 
L 150.185465 383.014263 
L 157.130603 457.203023 
L 164.07574 419.816276 
L 171.020877 472.905233 
L 177.966015 390.944563 
L 184.911152 409.06417 
L 191.85629 454.155917 
L 198.801427 476.232862 
L 205.746564 444.936223 
L 212.691702 350.194099 
L 219.636839 309.396028 
L 226.581977 426.47708 
L 233.527114 394.575583 
L 240.472252 316.941703 
L 247.417389 375.879817 
L 254.362526 389.893886 
L 261.307664 364.980813 
L 268.252801 451.446591 
L 275.197939 505.947273 
L 282.143076 486.691086 
L 289.088214 454.039601 
L 296.033351 375.456699 
L 302.978488 363.997557 
L 309.923626 332.325181 
L 316.868763 365.967862 
L 323.813901 364.708556 
L 330.759038 362.406866 
L 337.704175 453.722892 
L 344.649313 380.192259 
L 351.59445 300.660448 
L 358.539588 268.035724 
L 365.484725 310.027096 
L 372.429863 378.920442 
L 379.375 404.127453 
L 386.320137 450.949288 
L 393.265275 391.341358 
L 400.210412 444.948083 
L 407.15555 489.396038 
L 414.100687 483.30484 
L 421.045825 399.891291 
L 427.990962 383.553116 
L 434.936099 351.407383 
L 441.881237 372.144666 
L 448.826374 391.950321 
L 455.771512 394.768532 
L 462.716649 425.351256 
L 469.661786 397.626765 
L 476.606924 317.514182 
L 483.552061 315.886583 
L 490.497199 393.320324 
L 497.442336 377.292956 
L 504.387474 307.527108 
L 511.332611 318.41714 
L 518.277748 380.032369 
L 525.222886 420.713317 
L 532.168023 364.03039 
L 539.113161 262.297067 
L 546.058298 303.720121 
L 553.003436 276.032369 
L 559.948573 273.528107 
L 566.89371 293.671542 
L 573.838848 315.069755 
L 580.783985 334.485832 
L 587.729123 355.828597 
L 594.67426 425.158194 
L 601.619397 347.141954 
L 608.564535 314.424988 
L 615.509672 298.54749 
L 622.45481 294.982135 
L 629.399947 284.944538 
L 636.345085 250.591255 
L 643.290222 317.979332 
L 650.235359 333.965489 
L 657.180497 278.649593 
L 664.125634 217.989401 
L 671.070772 190.899855 
L 678.015909 102.492727 
" clip-path="url(#p5caa2e9cc3)" style="fill: none; stroke: #0000ff; stroke-width: 2; stroke-linecap: square"/>
   </g>
   <g id="line2d_13">
    <path d="M 80.734091 135.964593 
L 87.679228 105.476093 
L 94.624366 150.771544 
L 101.569503 123.164798 
L 108.514641 142.106357 
L 115.459778 112.269077 
L 122.404915 112.142954 
L 129.350053 134.274385 
L 136.29519 372.916236 
L 143.240328 311.857409 
L 150.185465 408.334518 
L 157.130603 384.614661 
L 164.07574 141.853658 
L 171.020877 109.9782 
L 177.966015 203.118114 
L 184.911152 260.297213 
L 191.85629 389.137261 
L 198.801427 405.047365 
L 205.746564 417.518662 
L 212.691702 340.19709 
L 219.636839 326.329835 
L 226.581977 348.955738 
L 233.527114 340.954225 
L 240.472252 273.769739 
L 247.417389 309.46042 
L 254.362526 400.324853 
L 261.307664 422.016835 
L 268.252801 407.521483 
L 275.197939 358.273222 
L 282.143076 329.377507 
L 289.088214 256.227903 
L 296.033351 302.146696 
L 302.978488 421.558506 
L 309.923626 391.893514 
L 316.868763 374.330988 
L 323.813901 399.089068 
L 330.759038 390.219779 
L 337.704175 382.619562 
L 344.649313 329.399754 
L 351.59445 325.342672 
L 358.539588 386.589863 
L 365.484725 344.459065 
L 372.429863 292.928758 
L 379.375 298.655781 
L 386.320137 394.886899 
L 393.265275 324.715397 
L 400.210412 249.132942 
L 407.15555 272.261357 
L 414.100687 319.790172 
L 421.045825 369.483203 
L 427.990962 377.790712 
L 434.936099 345.277082 
L 441.881237 347.960877 
L 448.826374 339.260734 
L 455.771512 336.437343 
L 462.716649 399.667547 
L 469.661786 411.968369 
L 476.606924 439.2212 
L 483.552061 397.860755 
L 490.497199 332.112249 
L 497.442336 369.535707 
L 504.387474 397.5973 
L 511.332611 465.412543 
L 518.277748 433.72794 
L 525.222886 454.957234 
L 532.168023 417.860462 
L 539.113161 395.962682 
L 546.058298 374.397956 
L 553.003436 400.681598 
L 559.948573 405.70903 
L 566.89371 404.931771 
L 573.838848 385.685604 
L 580.783985 443.982318 
L 587.729123 472.453472 
L 594.67426 490.63014 
L 601.619397 440.234232 
L 608.564535 388.97154 
L 615.509672 361.366238 
L 622.45481 372.066264 
L 629.399947 430.924872 
L 636.345085 401.362255 
L 643.290222 379.208748 
L 650.235359 393.595836 
L 657.180497 401.438054 
L 664.125634 451.795383 
L 671.070772 397.634435 
L 678.015909 361.925612 
" clip-path="url(#p5caa2e9cc3)" style="fill: none; stroke-dasharray: 7.4,3.2; stroke-dashoffset: 0; stroke: #ff0000; stroke-width: 2"/>
   </g>
   <g id="patch_3">
    <path d="M 50.87 526.12 
L 50.87 82.32 
" style="fill: none; stroke: #000000; stroke-width: 0.8; stroke-linejoin: miter; stroke-linecap: square"/>
   </g>
   <g id="patch_4">
    <path d="M 707.88 526.12 
L 707.88 82.32 
" style="fill: none; stroke: #000000; stroke-width: 0.8; stroke-linejoin: miter; stroke-linecap: square"/>
   </g>
   <g id="patch_5">
    <path d="M 50.87 526.12 
L 707.88 526.12 
" style="fill: none; stroke: #000000; stroke-width: 0.8; stroke-linejoin: miter; stroke-linecap: square"/>
   </g>
   <g id="patch_6">
    <path d="M 50.87 82.32 
L 707.88 82.32 
" style="fill: none; stroke: #000000; stroke-width: 0.8; stroke-linejoin: miter; stroke-linecap: square"/>
   </g>
   <g id="text_14">
    <!-- Max Over Coefficients -->
    <g transform="translate(286.407813 76.32) scale(0.15 -0.15)">
     <defs>
      <path id="DejaVuSans-Bold-4d" d="M 588 4666 
L 2119 4666 
L 3181 2169 
L 4250 4666 
L 5778 4666 
L 5778 0 
L 4641 0 
L 4641 3413 
L 3566 897 
L 2803 897 
L 1728 3413 
L 1728 0 
L 588 0 
L 588 4666 
z
" transform="scale(0.015625)"/>
      <path id="DejaVuSans-Bold-61" d="M 2106 1575 
Q 1756 1575 1579 1456 
Q 1403 1338 1403 1106 
Q 1403 894 1545 773 
Q 1688 653 1941 653 
Q 2256 653 2472 879 
Q 2688 1106 2688 1447 
L 2688 1575 
L 2106 1575 
z
M 3816 1997 
L 3816 0 
L 2688 0 
L 2688 519 
Q 2463 200 2181 54 
Q 1900 -91 1497 -91 
Q 953 -91 614 226 
Q 275 544 275 1050 
Q 275 1666 698 1953 
Q 1122 2241 2028 2241 
L 2688 2241 
L 2688 2328 
Q 2688 2594 2478 2717 
Q 2269 2841 1825 2841 
Q 1466 2841 1156 2769 
Q 847 2697 581 2553 
L 581 3406 
Q 941 3494 1303 3539 
Q 1666 3584 2028 3584 
Q 2975 3584 3395 3211 
Q 3816 2838 3816 1997 
z
" transform="scale(0.015625)"/>
      <path id="DejaVuSans-Bold-78" d="M 1422 1791 
L 159 3500 
L 1344 3500 
L 2059 2463 
L 2784 3500 
L 3969 3500 
L 2706 1797 
L 4031 0 
L 2847 0 
L 2059 1106 
L 1281 0 
L 97 0 
L 1422 1791 
z
" transform="scale(0.015625)"/>
      <path id="DejaVuSans-Bold-20" transform="scale(0.015625)"/>
      <path id="DejaVuSans-Bold-4f" d="M 2719 3878 
Q 2169 3878 1866 3472 
Q 1563 3066 1563 2328 
Q 1563 1594 1866 1187 
Q 2169 781 2719 781 
Q 3272 781 3575 1187 
Q 3878 1594 3878 2328 
Q 3878 3066 3575 3472 
Q 3272 3878 2719 3878 
z
M 2719 4750 
Q 3844 4750 4481 4106 
Q 5119 3463 5119 2328 
Q 5119 1197 4481 553 
Q 3844 -91 2719 -91 
Q 1597 -91 958 553 
Q 319 1197 319 2328 
Q 319 3463 958 4106 
Q 1597 4750 2719 4750 
z
" transform="scale(0.015625)"/>
      <path id="DejaVuSans-Bold-76" d="M 97 3500 
L 1216 3500 
L 2088 1081 
L 2956 3500 
L 4078 3500 
L 2700 0 
L 1472 0 
L 97 3500 
z
" transform="scale(0.015625)"/>
      <path id="DejaVuSans-Bold-65" d="M 4031 1759 
L 4031 1441 
L 1416 1441 
Q 1456 1047 1700 850 
Q 1944 653 2381 653 
Q 2734 653 3104 758 
Q 3475 863 3866 1075 
L 3866 213 
Q 3469 63 3072 -14 
Q 2675 -91 2278 -91 
Q 1328 -91 801 392 
Q 275 875 275 1747 
Q 275 2603 792 3093 
Q 1309 3584 2216 3584 
Q 3041 3584 3536 3087 
Q 4031 2591 4031 1759 
z
M 2881 2131 
Q 2881 2450 2695 2645 
Q 2509 2841 2209 2841 
Q 1884 2841 1681 2658 
Q 1478 2475 1428 2131 
L 2881 2131 
z
" transform="scale(0.015625)"/>
      <path id="DejaVuSans-Bold-72" d="M 3138 2547 
Q 2991 2616 2845 2648 
Q 2700 2681 2553 2681 
Q 2122 2681 1889 2404 
Q 1656 2128 1656 1613 
L 1656 0 
L 538 0 
L 538 3500 
L 1656 3500 
L 1656 2925 
Q 1872 3269 2151 3426 
Q 2431 3584 2822 3584 
Q 2878 3584 2943 3579 
Q 3009 3575 3134 3559 
L 3138 2547 
z
" transform="scale(0.015625)"/>
      <path id="DejaVuSans-Bold-43" d="M 4288 256 
Q 3956 84 3597 -3 
Q 3238 -91 2847 -91 
Q 1681 -91 1000 561 
Q 319 1213 319 2328 
Q 319 3447 1000 4098 
Q 1681 4750 2847 4750 
Q 3238 4750 3597 4662 
Q 3956 4575 4288 4403 
L 4288 3438 
Q 3953 3666 3628 3772 
Q 3303 3878 2944 3878 
Q 2300 3878 1931 3465 
Q 1563 3053 1563 2328 
Q 1563 1606 1931 1193 
Q 2300 781 2944 781 
Q 3303 781 3628 887 
Q 3953 994 4288 1222 
L 4288 256 
z
" transform="scale(0.015625)"/>
      <path id="DejaVuSans-Bold-6f" d="M 2203 2784 
Q 1831 2784 1636 2517 
Q 1441 2250 1441 1747 
Q 1441 1244 1636 976 
Q 1831 709 2203 709 
Q 2569 709 2762 976 
Q 2956 1244 2956 1747 
Q 2956 2250 2762 2517 
Q 2569 2784 2203 2784 
z
M 2203 3584 
Q 3106 3584 3614 3096 
Q 4122 2609 4122 1747 
Q 4122 884 3614 396 
Q 3106 -91 2203 -91 
Q 1297 -91 786 396 
Q 275 884 275 1747 
Q 275 2609 786 3096 
Q 1297 3584 2203 3584 
z
" transform="scale(0.015625)"/>
      <path id="DejaVuSans-Bold-66" d="M 2841 4863 
L 2841 4128 
L 2222 4128 
Q 1984 4128 1890 4042 
Q 1797 3956 1797 3744 
L 1797 3500 
L 2753 3500 
L 2753 2700 
L 1797 2700 
L 1797 0 
L 678 0 
L 678 2700 
L 122 2700 
L 122 3500 
L 678 3500 
L 678 3744 
Q 678 4316 997 4589 
Q 1316 4863 1984 4863 
L 2841 4863 
z
" transform="scale(0.015625)"/>
      <path id="DejaVuSans-Bold-69" d="M 538 3500 
L 1656 3500 
L 1656 0 
L 538 0 
L 538 3500 
z
M 538 4863 
L 1656 4863 
L 1656 3950 
L 538 3950 
L 538 4863 
z
" transform="scale(0.015625)"/>
      <path id="DejaVuSans-Bold-63" d="M 3366 3391 
L 3366 2478 
Q 3138 2634 2908 2709 
Q 2678 2784 2431 2784 
Q 1963 2784 1702 2511 
Q 1441 2238 1441 1747 
Q 1441 1256 1702 982 
Q 1963 709 2431 709 
Q 2694 709 2930 787 
Q 3166 866 3366 1019 
L 3366 103 
Q 3103 6 2833 -42 
Q 2563 -91 2291 -91 
Q 1344 -91 809 395 
Q 275 881 275 1747 
Q 275 2613 809 3098 
Q 1344 3584 2291 3584 
Q 2566 3584 2833 3536 
Q 3100 3488 3366 3391 
z
" transform="scale(0.015625)"/>
      <path id="DejaVuSans-Bold-6e" d="M 4056 2131 
L 4056 0 
L 2931 0 
L 2931 347 
L 2931 1631 
Q 2931 2084 2911 2256 
Q 2891 2428 2841 2509 
Q 2775 2619 2662 2680 
Q 2550 2741 2406 2741 
Q 2056 2741 1856 2470 
Q 1656 2200 1656 1722 
L 1656 0 
L 538 0 
L 538 3500 
L 1656 3500 
L 1656 2988 
Q 1909 3294 2193 3439 
Q 2478 3584 2822 3584 
Q 3428 3584 3742 3212 
Q 4056 2841 4056 2131 
z
" transform="scale(0.015625)"/>
      <path id="DejaVuSans-Bold-74" d="M 1759 4494 
L 1759 3500 
L 2913 3500 
L 2913 2700 
L 1759 2700 
L 1759 1216 
Q 1759 972 1856 886 
Q 1953 800 2241 800 
L 2816 800 
L 2816 0 
L 1856 0 
Q 1194 0 917 276 
Q 641 553 641 1216 
L 641 2700 
L 84 2700 
L 84 3500 
L 641 3500 
L 641 4494 
L 1759 4494 
z
" transform="scale(0.015625)"/>
      <path id="DejaVuSans-Bold-73" d="M 3272 3391 
L 3272 2541 
Q 2913 2691 2578 2766 
Q 2244 2841 1947 2841 
Q 1628 2841 1473 2761 
Q 1319 2681 1319 2516 
Q 1319 2381 1436 2309 
Q 1553 2238 1856 2203 
L 2053 2175 
Q 2913 2066 3209 1816 
Q 3506 1566 3506 1031 
Q 3506 472 3093 190 
Q 2681 -91 1863 -91 
Q 1516 -91 1145 -36 
Q 775 19 384 128 
L 384 978 
Q 719 816 1070 734 
Q 1422 653 1784 653 
Q 2113 653 2278 743 
Q 2444 834 2444 1013 
Q 2444 1163 2330 1236 
Q 2216 1309 1875 1350 
L 1678 1375 
Q 931 1469 631 1722 
Q 331 1975 331 2491 
Q 331 3047 712 3315 
Q 1094 3584 1881 3584 
Q 2191 3584 2531 3537 
Q 2872 3491 3272 3391 
z
" transform="scale(0.015625)"/>
     </defs>
     <use xlink:href="#DejaVuSans-Bold-4d"/>
     <use xlink:href="#DejaVuSans-Bold-61" x="99.511719"/>
     <use xlink:href="#DejaVuSans-Bold-78" x="166.992188"/>
     <use xlink:href="#DejaVuSans-Bold-20" x="231.494141"/>
     <use xlink:href="#DejaVuSans-Bold-4f" x="266.308594"/>
     <use xlink:href="#DejaVuSans-Bold-76" x="351.318359"/>
     <use xlink:href="#DejaVuSans-Bold-65" x="416.503906"/>
     <use xlink:href="#DejaVuSans-Bold-72" x="484.326172"/>
     <use xlink:href="#DejaVuSans-Bold-20" x="533.642578"/>
     <use xlink:href="#DejaVuSans-Bold-43" x="568.457031"/>
     <use xlink:href="#DejaVuSans-Bold-6f" x="641.845703"/>
     <use xlink:href="#DejaVuSans-Bold-65" x="710.546875"/>
     <use xlink:href="#DejaVuSans-Bold-66" x="778.369141"/>
     <use xlink:href="#DejaVuSans-Bold-66" x="821.875"/>
     <use xlink:href="#DejaVuSans-Bold-69" x="865.380859"/>
     <use xlink:href="#DejaVuSans-Bold-63" x="899.658203"/>
     <use xlink:href="#DejaVuSans-Bold-69" x="958.935547"/>
     <use xlink:href="#DejaVuSans-Bold-65" x="993.212891"/>
     <use xlink:href="#DejaVuSans-Bold-6e" x="1061.035156"/>
     <use xlink:href="#DejaVuSans-Bold-74" x="1132.226562"/>
     <use xlink:href="#DejaVuSans-Bold-73" x="1180.029297"/>
    </g>
   </g>
   <g id="legend_1">
    <g id="patch_7">
     <path d="M 64.87 27.94 
L 345.610625 27.94 
Q 349.610625 27.94 349.610625 23.94 
L 349.610625 -3.41625 
Q 349.610625 -7.41625 345.610625 -7.41625 
L 64.87 -7.41625 
Q 60.87 -7.41625 60.87 -3.41625 
L 60.87 23.94 
Q 60.87 27.94 64.87 27.94 
z
" style="fill: #ffffff; opacity: 0.8; stroke: #cccccc; stroke-linejoin: miter"/>
    </g>
    <g id="line2d_14">
     <path d="M 68.87 8.780625 
L 88.87 8.780625 
L 108.87 8.780625 
" style="fill: none; stroke: #0000ff; stroke-width: 2; stroke-linecap: square"/>
    </g>
    <g id="text_15">
     <!-- turn -->
     <g transform="translate(124.87 15.780625) scale(0.2 -0.2)">
      <defs>
       <path id="DejaVuSans-6e" d="M 3513 2113 
L 3513 0 
L 2938 0 
L 2938 2094 
Q 2938 2591 2744 2837 
Q 2550 3084 2163 3084 
Q 1697 3084 1428 2787 
Q 1159 2491 1159 1978 
L 1159 0 
L 581 0 
L 581 3500 
L 1159 3500 
L 1159 2956 
Q 1366 3272 1645 3428 
Q 1925 3584 2291 3584 
Q 2894 3584 3203 3211 
Q 3513 2838 3513 2113 
z
" transform="scale(0.015625)"/>
      </defs>
      <use xlink:href="#DejaVuSans-74"/>
      <use xlink:href="#DejaVuSans-75" x="39.208984"/>
      <use xlink:href="#DejaVuSans-72" x="102.587891"/>
      <use xlink:href="#DejaVuSans-6e" x="141.951172"/>
     </g>
    </g>
    <g id="line2d_15">
     <path d="M 205.9325 8.780625 
L 225.9325 8.780625 
L 245.9325 8.780625 
" style="fill: none; stroke-dasharray: 7.4,3.2; stroke-dashoffset: 0; stroke: #ff0000; stroke-width: 2"/>
    </g>
    <g id="text_16">
     <!-- towards -->
     <g transform="translate(261.9325 15.780625) scale(0.2 -0.2)">
      <defs>
       <path id="DejaVuSans-6f" d="M 1959 3097 
Q 1497 3097 1228 2736 
Q 959 2375 959 1747 
Q 959 1119 1226 758 
Q 1494 397 1959 397 
Q 2419 397 2687 759 
Q 2956 1122 2956 1747 
Q 2956 2369 2687 2733 
Q 2419 3097 1959 3097 
z
M 1959 3584 
Q 2709 3584 3137 3096 
Q 3566 2609 3566 1747 
Q 3566 888 3137 398 
Q 2709 -91 1959 -91 
Q 1206 -91 779 398 
Q 353 888 353 1747 
Q 353 2609 779 3096 
Q 1206 3584 1959 3584 
z
" transform="scale(0.015625)"/>
       <path id="DejaVuSans-77" d="M 269 3500 
L 844 3500 
L 1563 769 
L 2278 3500 
L 2956 3500 
L 3675 769 
L 4391 3500 
L 4966 3500 
L 4050 0 
L 3372 0 
L 2619 2869 
L 1863 0 
L 1184 0 
L 269 3500 
z
" transform="scale(0.015625)"/>
      </defs>
      <use xlink:href="#DejaVuSans-74"/>
      <use xlink:href="#DejaVuSans-6f" x="39.208984"/>
      <use xlink:href="#DejaVuSans-77" x="100.390625"/>
      <use xlink:href="#DejaVuSans-61" x="182.177734"/>
      <use xlink:href="#DejaVuSans-72" x="243.457031"/>
      <use xlink:href="#DejaVuSans-64" x="282.820312"/>
      <use xlink:href="#DejaVuSans-73" x="346.296875"/>
     </g>
    </g>
   </g>
  </g>
  <g id="axes_2">
   <g id="patch_8">
    <path d="M 771.53 526.12 
L 1428.54 526.12 
L 1428.54 82.32 
L 771.53 82.32 
z
" style="fill: #ffffff"/>
   </g>
   <g id="matplotlib.axis_3">
    <g id="xtick_6">
     <g id="line2d_16">
      <g>
       <use xlink:href="#m66cf116772" x="794.448953" y="526.12" style="stroke: #000000; stroke-width: 0.8"/>
      </g>
     </g>
     <g id="text_17">
      <!-- 0 -->
      <g transform="translate(791.267703 540.718438) scale(0.1 -0.1)">
       <use xlink:href="#DejaVuSans-30"/>
      </g>
     </g>
    </g>
    <g id="xtick_7">
     <g id="line2d_17">
      <g>
       <use xlink:href="#m66cf116772" x="933.351702" y="526.12" style="stroke: #000000; stroke-width: 0.8"/>
      </g>
     </g>
     <g id="text_18">
      <!-- 20 -->
      <g transform="translate(926.989202 540.718438) scale(0.1 -0.1)">
       <use xlink:href="#DejaVuSans-32"/>
       <use xlink:href="#DejaVuSans-30" x="63.623047"/>
      </g>
     </g>
    </g>
    <g id="xtick_8">
     <g id="line2d_18">
      <g>
       <use xlink:href="#m66cf116772" x="1072.25445" y="526.12" style="stroke: #000000; stroke-width: 0.8"/>
      </g>
     </g>
     <g id="text_19">
      <!-- 40 -->
      <g transform="translate(1065.89195 540.718438) scale(0.1 -0.1)">
       <use xlink:href="#DejaVuSans-34"/>
       <use xlink:href="#DejaVuSans-30" x="63.623047"/>
      </g>
     </g>
    </g>
    <g id="xtick_9">
     <g id="line2d_19">
      <g>
       <use xlink:href="#m66cf116772" x="1211.157199" y="526.12" style="stroke: #000000; stroke-width: 0.8"/>
      </g>
     </g>
     <g id="text_20">
      <!-- 60 -->
      <g transform="translate(1204.794699 540.718438) scale(0.1 -0.1)">
       <use xlink:href="#DejaVuSans-36"/>
       <use xlink:href="#DejaVuSans-30" x="63.623047"/>
      </g>
     </g>
    </g>
    <g id="xtick_10">
     <g id="line2d_20">
      <g>
       <use xlink:href="#m66cf116772" x="1350.059947" y="526.12" style="stroke: #000000; stroke-width: 0.8"/>
      </g>
     </g>
     <g id="text_21">
      <!-- 80 -->
      <g transform="translate(1343.697447 540.718438) scale(0.1 -0.1)">
       <use xlink:href="#DejaVuSans-38"/>
       <use xlink:href="#DejaVuSans-30" x="63.623047"/>
      </g>
     </g>
    </g>
    <g id="text_22">
     <!-- Time Frames -->
     <g transform="translate(1052.024453 558.195781) scale(0.15 -0.15)">
      <use xlink:href="#DejaVuSans-54"/>
      <use xlink:href="#DejaVuSans-69" x="57.958984"/>
      <use xlink:href="#DejaVuSans-6d" x="85.742188"/>
      <use xlink:href="#DejaVuSans-65" x="183.154297"/>
      <use xlink:href="#DejaVuSans-20" x="244.677734"/>
      <use xlink:href="#DejaVuSans-46" x="276.464844"/>
      <use xlink:href="#DejaVuSans-72" x="326.734375"/>
      <use xlink:href="#DejaVuSans-61" x="367.847656"/>
      <use xlink:href="#DejaVuSans-6d" x="429.126953"/>
      <use xlink:href="#DejaVuSans-65" x="526.539062"/>
      <use xlink:href="#DejaVuSans-73" x="588.0625"/>
     </g>
    </g>
   </g>
   <g id="matplotlib.axis_4">
    <g id="ytick_7">
     <g id="line2d_21">
      <g>
       <use xlink:href="#mfa0431f4bd" x="771.53" y="486.721231" style="stroke: #000000; stroke-width: 0.8"/>
      </g>
     </g>
     <g id="text_23">
      <!-- −130 -->
      <g transform="translate(737.062813 490.52045) scale(0.1 -0.1)">
       <defs>
        <path id="DejaVuSans-2212" d="M 678 2272 
L 4684 2272 
L 4684 1741 
L 678 1741 
L 678 2272 
z
" transform="scale(0.015625)"/>
       </defs>
       <use xlink:href="#DejaVuSans-2212"/>
       <use xlink:href="#DejaVuSans-31" x="83.789062"/>
       <use xlink:href="#DejaVuSans-33" x="147.412109"/>
       <use xlink:href="#DejaVuSans-30" x="211.035156"/>
      </g>
     </g>
    </g>
    <g id="ytick_8">
     <g id="line2d_22">
      <g>
       <use xlink:href="#mfa0431f4bd" x="771.53" y="406.07466" style="stroke: #000000; stroke-width: 0.8"/>
      </g>
     </g>
     <g id="text_24">
      <!-- −120 -->
      <g transform="translate(737.062813 409.873878) scale(0.1 -0.1)">
       <use xlink:href="#DejaVuSans-2212"/>
       <use xlink:href="#DejaVuSans-31" x="83.789062"/>
       <use xlink:href="#DejaVuSans-32" x="147.412109"/>
       <use xlink:href="#DejaVuSans-30" x="211.035156"/>
      </g>
     </g>
    </g>
    <g id="ytick_9">
     <g id="line2d_23">
      <g>
       <use xlink:href="#mfa0431f4bd" x="771.53" y="325.428088" style="stroke: #000000; stroke-width: 0.8"/>
      </g>
     </g>
     <g id="text_25">
      <!-- −110 -->
      <g transform="translate(737.062813 329.227307) scale(0.1 -0.1)">
       <use xlink:href="#DejaVuSans-2212"/>
       <use xlink:href="#DejaVuSans-31" x="83.789062"/>
       <use xlink:href="#DejaVuSans-31" x="147.412109"/>
       <use xlink:href="#DejaVuSans-30" x="211.035156"/>
      </g>
     </g>
    </g>
    <g id="ytick_10">
     <g id="line2d_24">
      <g>
       <use xlink:href="#mfa0431f4bd" x="771.53" y="244.781516" style="stroke: #000000; stroke-width: 0.8"/>
      </g>
     </g>
     <g id="text_26">
      <!-- −100 -->
      <g transform="translate(737.062813 248.580735) scale(0.1 -0.1)">
       <use xlink:href="#DejaVuSans-2212"/>
       <use xlink:href="#DejaVuSans-31" x="83.789062"/>
       <use xlink:href="#DejaVuSans-30" x="147.412109"/>
       <use xlink:href="#DejaVuSans-30" x="211.035156"/>
      </g>
     </g>
    </g>
    <g id="ytick_11">
     <g id="line2d_25">
      <g>
       <use xlink:href="#mfa0431f4bd" x="771.53" y="164.134945" style="stroke: #000000; stroke-width: 0.8"/>
      </g>
     </g>
     <g id="text_27">
      <!-- −90 -->
      <g transform="translate(743.425313 167.934163) scale(0.1 -0.1)">
       <defs>
        <path id="DejaVuSans-39" d="M 703 97 
L 703 672 
Q 941 559 1184 500 
Q 1428 441 1663 441 
Q 2288 441 2617 861 
Q 2947 1281 2994 2138 
Q 2813 1869 2534 1725 
Q 2256 1581 1919 1581 
Q 1219 1581 811 2004 
Q 403 2428 403 3163 
Q 403 3881 828 4315 
Q 1253 4750 1959 4750 
Q 2769 4750 3195 4129 
Q 3622 3509 3622 2328 
Q 3622 1225 3098 567 
Q 2575 -91 1691 -91 
Q 1453 -91 1209 -44 
Q 966 3 703 97 
z
M 1959 2075 
Q 2384 2075 2632 2365 
Q 2881 2656 2881 3163 
Q 2881 3666 2632 3958 
Q 2384 4250 1959 4250 
Q 1534 4250 1286 3958 
Q 1038 3666 1038 3163 
Q 1038 2656 1286 2365 
Q 1534 2075 1959 2075 
z
" transform="scale(0.015625)"/>
       </defs>
       <use xlink:href="#DejaVuSans-2212"/>
       <use xlink:href="#DejaVuSans-39" x="83.789062"/>
       <use xlink:href="#DejaVuSans-30" x="147.412109"/>
      </g>
     </g>
    </g>
    <g id="ytick_12">
     <g id="line2d_26">
      <g>
       <use xlink:href="#mfa0431f4bd" x="771.53" y="83.488373" style="stroke: #000000; stroke-width: 0.8"/>
      </g>
     </g>
     <g id="text_28">
      <!-- −80 -->
      <g transform="translate(743.425313 87.287592) scale(0.1 -0.1)">
       <use xlink:href="#DejaVuSans-2212"/>
       <use xlink:href="#DejaVuSans-38" x="83.789062"/>
       <use xlink:href="#DejaVuSans-30" x="147.412109"/>
      </g>
     </g>
    </g>
    <g id="text_29">
     <!-- Amplitude -->
     <g transform="translate(729.943281 342.653984) rotate(-90) scale(0.15 -0.15)">
      <use xlink:href="#DejaVuSans-41"/>
      <use xlink:href="#DejaVuSans-6d" x="68.408203"/>
      <use xlink:href="#DejaVuSans-70" x="165.820312"/>
      <use xlink:href="#DejaVuSans-6c" x="229.296875"/>
      <use xlink:href="#DejaVuSans-69" x="257.080078"/>
      <use xlink:href="#DejaVuSans-74" x="284.863281"/>
      <use xlink:href="#DejaVuSans-75" x="324.072266"/>
      <use xlink:href="#DejaVuSans-64" x="387.451172"/>
      <use xlink:href="#DejaVuSans-65" x="450.927734"/>
     </g>
    </g>
   </g>
   <g id="line2d_27">
    <path d="M 801.394091 505.781761 
L 808.339228 276.44498 
L 815.284366 264.667327 
L 822.229503 239.566672 
L 829.174641 198.909287 
L 836.119778 200.856293 
L 843.064915 232.085059 
L 850.010053 253.532216 
L 856.95519 273.96766 
L 863.900328 270.244081 
L 870.845465 323.115172 
L 877.790603 289.578597 
L 884.73574 280.262636 
L 891.680877 254.488922 
L 898.626015 214.784612 
L 905.571152 183.961134 
L 912.51629 203.541395 
L 919.461427 252.240734 
L 926.406564 229.484313 
L 933.351702 254.028689 
L 940.296839 271.884553 
L 947.241977 299.916608 
L 954.187114 323.280314 
L 961.132252 311.363607 
L 968.077389 307.171858 
L 975.022526 311.009695 
L 981.967664 265.313561 
L 988.912801 246.38624 
L 995.857939 222.07438 
L 1002.803076 209.613761 
L 1009.748214 222.404111 
L 1016.693351 217.721427 
L 1023.638488 239.336864 
L 1030.583626 239.253493 
L 1037.528763 232.794728 
L 1044.473901 252.670633 
L 1051.419038 275.744356 
L 1058.364175 280.015476 
L 1065.309313 304.342842 
L 1072.25445 304.816918 
L 1079.199588 306.167037 
L 1086.144725 270.16151 
L 1093.089863 255.534475 
L 1100.035 261.747064 
L 1106.980137 201.182025 
L 1113.925275 192.975852 
L 1120.870412 193.096387 
L 1127.81555 199.787913 
L 1134.760687 216.062989 
L 1141.705825 177.948205 
L 1148.650962 210.86888 
L 1155.596099 261.069574 
L 1162.541237 258.712788 
L 1169.486374 253.68536 
L 1176.431512 256.722158 
L 1183.376649 319.548798 
L 1190.321786 324.584225 
L 1197.266924 281.777774 
L 1204.212061 344.48468 
L 1211.157199 308.972673 
L 1218.102336 260.99857 
L 1225.047474 247.629545 
L 1231.992611 210.272915 
L 1238.937748 190.97144 
L 1245.882886 202.54002 
L 1252.828023 271.192973 
L 1259.773161 267.346584 
L 1266.718298 282.197829 
L 1273.663436 264.894798 
L 1280.608573 278.744052 
L 1287.55371 265.960286 
L 1294.498848 322.7065 
L 1301.443985 333.350615 
L 1308.389123 290.130877 
L 1315.33426 248.683159 
L 1322.279397 211.599715 
L 1329.224535 218.780454 
L 1336.169672 204.559691 
L 1343.11481 182.184685 
L 1350.059947 271.750667 
L 1357.005085 266.416397 
L 1363.950222 291.712896 
L 1370.895359 285.923315 
L 1377.840497 278.274529 
L 1384.785634 266.339486 
L 1391.730772 183.807498 
L 1398.675909 205.883968 
" clip-path="url(#pc20d2013b7)" style="fill: none; stroke: #0000ff; stroke-width: 2; stroke-linecap: square"/>
   </g>
   <g id="line2d_28">
    <path d="M 801.394091 367.475155 
L 808.339228 102.492727 
L 815.284366 144.522935 
L 822.229503 126.647074 
L 829.174641 148.478415 
L 836.119778 152.569073 
L 843.064915 227.311743 
L 850.010053 297.204249 
L 856.95519 417.85502 
L 863.900328 423.69407 
L 870.845465 408.039079 
L 877.790603 370.787355 
L 884.73574 192.015886 
L 891.680877 115.604748 
L 898.626015 172.7301 
L 905.571152 216.345281 
L 912.51629 379.559466 
L 919.461427 467.796372 
L 926.406564 505.947273 
L 933.351702 498.016255 
L 940.296839 459.649451 
L 947.241977 378.849735 
L 954.187114 364.465306 
L 961.132252 424.14612 
L 968.077389 407.505935 
L 975.022526 374.630237 
L 981.967664 448.693264 
L 988.912801 447.679337 
L 995.857939 394.294484 
L 1002.803076 340.856532 
L 1009.748214 318.428119 
L 1016.693351 339.564065 
L 1023.638488 367.462726 
L 1030.583626 343.050636 
L 1037.528763 350.457001 
L 1044.473901 418.06434 
L 1051.419038 465.717449 
L 1058.364175 413.267766 
L 1065.309313 395.92788 
L 1072.25445 358.576726 
L 1079.199588 385.407191 
L 1086.144725 388.96329 
L 1093.089863 423.557662 
L 1100.035 448.686127 
L 1106.980137 470.895622 
L 1113.925275 422.189946 
L 1120.870412 360.001909 
L 1127.81555 318.580464 
L 1134.760687 335.152475 
L 1141.705825 352.29264 
L 1148.650962 343.731818 
L 1155.596099 375.002361 
L 1162.541237 388.328501 
L 1169.486374 379.074499 
L 1176.431512 377.027324 
L 1183.376649 358.081114 
L 1190.321786 327.420687 
L 1197.266924 341.291599 
L 1204.212061 371.726648 
L 1211.157199 347.76187 
L 1218.102336 334.562848 
L 1225.047474 381.488752 
L 1231.992611 393.897933 
L 1238.937748 368.200945 
L 1245.882886 360.405044 
L 1252.828023 350.005443 
L 1259.773161 347.397191 
L 1266.718298 321.889402 
L 1273.663436 305.908495 
L 1280.608573 350.342435 
L 1287.55371 355.955737 
L 1294.498848 343.483612 
L 1301.443985 369.092307 
L 1308.389123 373.042249 
L 1315.33426 361.490283 
L 1322.279397 371.61762 
L 1329.224535 393.383801 
L 1336.169672 371.930799 
L 1343.11481 403.667851 
L 1350.059947 429.065258 
L 1357.005085 376.992376 
L 1363.950222 338.803389 
L 1370.895359 322.078295 
L 1377.840497 300.447045 
L 1384.785634 329.148467 
L 1391.730772 319.032452 
L 1398.675909 473.164299 
" clip-path="url(#pc20d2013b7)" style="fill: none; stroke-dasharray: 7.4,3.2; stroke-dashoffset: 0; stroke: #ff0000; stroke-width: 2"/>
   </g>
   <g id="patch_9">
    <path d="M 771.53 526.12 
L 771.53 82.32 
" style="fill: none; stroke: #000000; stroke-width: 0.8; stroke-linejoin: miter; stroke-linecap: square"/>
   </g>
   <g id="patch_10">
    <path d="M 1428.54 526.12 
L 1428.54 82.32 
" style="fill: none; stroke: #000000; stroke-width: 0.8; stroke-linejoin: miter; stroke-linecap: square"/>
   </g>
   <g id="patch_11">
    <path d="M 771.53 526.12 
L 1428.54 526.12 
" style="fill: none; stroke: #000000; stroke-width: 0.8; stroke-linejoin: miter; stroke-linecap: square"/>
   </g>
   <g id="patch_12">
    <path d="M 771.53 82.32 
L 1428.54 82.32 
" style="fill: none; stroke: #000000; stroke-width: 0.8; stroke-linejoin: miter; stroke-linecap: square"/>
   </g>
   <g id="text_30">
    <!-- Min Over Coefficients -->
    <g transform="translate(1009.056484 76.32) scale(0.15 -0.15)">
     <use xlink:href="#DejaVuSans-Bold-4d"/>
     <use xlink:href="#DejaVuSans-Bold-69" x="99.511719"/>
     <use xlink:href="#DejaVuSans-Bold-6e" x="133.789062"/>
     <use xlink:href="#DejaVuSans-Bold-20" x="204.980469"/>
     <use xlink:href="#DejaVuSans-Bold-4f" x="239.794922"/>
     <use xlink:href="#DejaVuSans-Bold-76" x="324.804688"/>
     <use xlink:href="#DejaVuSans-Bold-65" x="389.990234"/>
     <use xlink:href="#DejaVuSans-Bold-72" x="457.8125"/>
     <use xlink:href="#DejaVuSans-Bold-20" x="507.128906"/>
     <use xlink:href="#DejaVuSans-Bold-43" x="541.943359"/>
     <use xlink:href="#DejaVuSans-Bold-6f" x="615.332031"/>
     <use xlink:href="#DejaVuSans-Bold-65" x="684.033203"/>
     <use xlink:href="#DejaVuSans-Bold-66" x="751.855469"/>
     <use xlink:href="#DejaVuSans-Bold-66" x="795.361328"/>
     <use xlink:href="#DejaVuSans-Bold-69" x="838.867188"/>
     <use xlink:href="#DejaVuSans-Bold-63" x="873.144531"/>
     <use xlink:href="#DejaVuSans-Bold-69" x="932.421875"/>
     <use xlink:href="#DejaVuSans-Bold-65" x="966.699219"/>
     <use xlink:href="#DejaVuSans-Bold-6e" x="1034.521484"/>
     <use xlink:href="#DejaVuSans-Bold-74" x="1105.712891"/>
     <use xlink:href="#DejaVuSans-Bold-73" x="1153.515625"/>
    </g>
   </g>
  </g>
  <g id="axes_3">
   <g id="patch_13">
    <path d="M 1492.19 526.12 
L 2149.2 526.12 
L 2149.2 82.32 
L 1492.19 82.32 
z
" style="fill: #ffffff"/>
   </g>
   <g id="matplotlib.axis_5">
    <g id="xtick_11">
     <g id="line2d_29">
      <g>
       <use xlink:href="#m66cf116772" x="1515.108953" y="526.12" style="stroke: #000000; stroke-width: 0.8"/>
      </g>
     </g>
     <g id="text_31">
      <!-- 0 -->
      <g transform="translate(1511.927703 540.718438) scale(0.1 -0.1)">
       <use xlink:href="#DejaVuSans-30"/>
      </g>
     </g>
    </g>
    <g id="xtick_12">
     <g id="line2d_30">
      <g>
       <use xlink:href="#m66cf116772" x="1654.011702" y="526.12" style="stroke: #000000; stroke-width: 0.8"/>
      </g>
     </g>
     <g id="text_32">
      <!-- 20 -->
      <g transform="translate(1647.649202 540.718438) scale(0.1 -0.1)">
       <use xlink:href="#DejaVuSans-32"/>
       <use xlink:href="#DejaVuSans-30" x="63.623047"/>
      </g>
     </g>
    </g>
    <g id="xtick_13">
     <g id="line2d_31">
      <g>
       <use xlink:href="#m66cf116772" x="1792.91445" y="526.12" style="stroke: #000000; stroke-width: 0.8"/>
      </g>
     </g>
     <g id="text_33">
      <!-- 40 -->
      <g transform="translate(1786.55195 540.718438) scale(0.1 -0.1)">
       <use xlink:href="#DejaVuSans-34"/>
       <use xlink:href="#DejaVuSans-30" x="63.623047"/>
      </g>
     </g>
    </g>
    <g id="xtick_14">
     <g id="line2d_32">
      <g>
       <use xlink:href="#m66cf116772" x="1931.817199" y="526.12" style="stroke: #000000; stroke-width: 0.8"/>
      </g>
     </g>
     <g id="text_34">
      <!-- 60 -->
      <g transform="translate(1925.454699 540.718438) scale(0.1 -0.1)">
       <use xlink:href="#DejaVuSans-36"/>
       <use xlink:href="#DejaVuSans-30" x="63.623047"/>
      </g>
     </g>
    </g>
    <g id="xtick_15">
     <g id="line2d_33">
      <g>
       <use xlink:href="#m66cf116772" x="2070.719947" y="526.12" style="stroke: #000000; stroke-width: 0.8"/>
      </g>
     </g>
     <g id="text_35">
      <!-- 80 -->
      <g transform="translate(2064.357447 540.718438) scale(0.1 -0.1)">
       <use xlink:href="#DejaVuSans-38"/>
       <use xlink:href="#DejaVuSans-30" x="63.623047"/>
      </g>
     </g>
    </g>
    <g id="text_36">
     <!-- Time Frames -->
     <g transform="translate(1772.684453 558.195781) scale(0.15 -0.15)">
      <use xlink:href="#DejaVuSans-54"/>
      <use xlink:href="#DejaVuSans-69" x="57.958984"/>
      <use xlink:href="#DejaVuSans-6d" x="85.742188"/>
      <use xlink:href="#DejaVuSans-65" x="183.154297"/>
      <use xlink:href="#DejaVuSans-20" x="244.677734"/>
      <use xlink:href="#DejaVuSans-46" x="276.464844"/>
      <use xlink:href="#DejaVuSans-72" x="326.734375"/>
      <use xlink:href="#DejaVuSans-61" x="367.847656"/>
      <use xlink:href="#DejaVuSans-6d" x="429.126953"/>
      <use xlink:href="#DejaVuSans-65" x="526.539062"/>
      <use xlink:href="#DejaVuSans-73" x="588.0625"/>
     </g>
    </g>
   </g>
   <g id="matplotlib.axis_6">
    <g id="ytick_13">
     <g id="line2d_34">
      <g>
       <use xlink:href="#mfa0431f4bd" x="1492.19" y="523.326708" style="stroke: #000000; stroke-width: 0.8"/>
      </g>
     </g>
     <g id="text_37">
      <!-- 26 -->
      <g transform="translate(1472.465 527.125927) scale(0.1 -0.1)">
       <use xlink:href="#DejaVuSans-32"/>
       <use xlink:href="#DejaVuSans-36" x="63.623047"/>
      </g>
     </g>
    </g>
    <g id="ytick_14">
     <g id="line2d_35">
      <g>
       <use xlink:href="#mfa0431f4bd" x="1492.19" y="452.48286" style="stroke: #000000; stroke-width: 0.8"/>
      </g>
     </g>
     <g id="text_38">
      <!-- 28 -->
      <g transform="translate(1472.465 456.282079) scale(0.1 -0.1)">
       <use xlink:href="#DejaVuSans-32"/>
       <use xlink:href="#DejaVuSans-38" x="63.623047"/>
      </g>
     </g>
    </g>
    <g id="ytick_15">
     <g id="line2d_36">
      <g>
       <use xlink:href="#mfa0431f4bd" x="1492.19" y="381.639012" style="stroke: #000000; stroke-width: 0.8"/>
      </g>
     </g>
     <g id="text_39">
      <!-- 30 -->
      <g transform="translate(1472.465 385.438231) scale(0.1 -0.1)">
       <use xlink:href="#DejaVuSans-33"/>
       <use xlink:href="#DejaVuSans-30" x="63.623047"/>
      </g>
     </g>
    </g>
    <g id="ytick_16">
     <g id="line2d_37">
      <g>
       <use xlink:href="#mfa0431f4bd" x="1492.19" y="310.795164" style="stroke: #000000; stroke-width: 0.8"/>
      </g>
     </g>
     <g id="text_40">
      <!-- 32 -->
      <g transform="translate(1472.465 314.594382) scale(0.1 -0.1)">
       <use xlink:href="#DejaVuSans-33"/>
       <use xlink:href="#DejaVuSans-32" x="63.623047"/>
      </g>
     </g>
    </g>
    <g id="ytick_17">
     <g id="line2d_38">
      <g>
       <use xlink:href="#mfa0431f4bd" x="1492.19" y="239.951315" style="stroke: #000000; stroke-width: 0.8"/>
      </g>
     </g>
     <g id="text_41">
      <!-- 34 -->
      <g transform="translate(1472.465 243.750534) scale(0.1 -0.1)">
       <use xlink:href="#DejaVuSans-33"/>
       <use xlink:href="#DejaVuSans-34" x="63.623047"/>
      </g>
     </g>
    </g>
    <g id="ytick_18">
     <g id="line2d_39">
      <g>
       <use xlink:href="#mfa0431f4bd" x="1492.19" y="169.107467" style="stroke: #000000; stroke-width: 0.8"/>
      </g>
     </g>
     <g id="text_42">
      <!-- 36 -->
      <g transform="translate(1472.465 172.906686) scale(0.1 -0.1)">
       <use xlink:href="#DejaVuSans-33"/>
       <use xlink:href="#DejaVuSans-36" x="63.623047"/>
      </g>
     </g>
    </g>
    <g id="ytick_19">
     <g id="line2d_40">
      <g>
       <use xlink:href="#mfa0431f4bd" x="1492.19" y="98.263619" style="stroke: #000000; stroke-width: 0.8"/>
      </g>
     </g>
     <g id="text_43">
      <!-- 38 -->
      <g transform="translate(1472.465 102.062838) scale(0.1 -0.1)">
       <use xlink:href="#DejaVuSans-33"/>
       <use xlink:href="#DejaVuSans-38" x="63.623047"/>
      </g>
     </g>
    </g>
    <g id="text_44">
     <!-- Amplitude -->
     <g transform="translate(1465.345469 342.653984) rotate(-90) scale(0.15 -0.15)">
      <use xlink:href="#DejaVuSans-41"/>
      <use xlink:href="#DejaVuSans-6d" x="68.408203"/>
      <use xlink:href="#DejaVuSans-70" x="165.820312"/>
      <use xlink:href="#DejaVuSans-6c" x="229.296875"/>
      <use xlink:href="#DejaVuSans-69" x="257.080078"/>
      <use xlink:href="#DejaVuSans-74" x="284.863281"/>
      <use xlink:href="#DejaVuSans-75" x="324.072266"/>
      <use xlink:href="#DejaVuSans-64" x="387.451172"/>
      <use xlink:href="#DejaVuSans-65" x="450.927734"/>
     </g>
    </g>
   </g>
   <g id="line2d_41">
    <path d="M 1522.054091 104.599579 
L 1528.999228 370.710933 
L 1535.944366 391.867757 
L 1542.889503 418.459333 
L 1549.834641 474.101673 
L 1556.779778 473.665291 
L 1563.724915 429.791703 
L 1570.670053 395.545222 
L 1577.61519 371.216634 
L 1584.560328 359.812851 
L 1591.505465 305.325347 
L 1598.450603 350.123182 
L 1605.39574 359.533482 
L 1612.340877 434.142761 
L 1619.286015 483.291991 
L 1626.231152 491.086817 
L 1633.17629 477.953516 
L 1640.121427 426.765198 
L 1647.066564 444.134499 
L 1654.011702 398.018193 
L 1660.956839 369.9916 
L 1667.901977 376.116362 
L 1674.847114 332.536602 
L 1681.792252 334.148292 
L 1688.737389 359.731506 
L 1695.682526 367.01928 
L 1702.627664 397.556947 
L 1709.572801 422.263207 
L 1716.517939 486.815077 
L 1723.463076 473.224111 
L 1730.408214 467.077932 
L 1737.353351 450.757936 
L 1744.298488 420.360324 
L 1751.243626 422.725263 
L 1758.188763 422.194091 
L 1765.133901 398.923253 
L 1772.079038 361.730597 
L 1779.024175 380.154135 
L 1785.969313 339.151053 
L 1792.91445 328.825018 
L 1799.859588 323.149206 
L 1806.804725 379.065374 
L 1813.749863 423.871857 
L 1820.695 432.721528 
L 1827.640137 502.379664 
L 1834.585275 489.485396 
L 1841.530412 472.423434 
L 1848.47555 486.241409 
L 1855.420687 475.154018 
L 1862.365825 504.922425 
L 1869.310962 467.386961 
L 1876.256099 417.742096 
L 1883.201237 420.242969 
L 1890.146374 418.600403 
L 1897.091512 430.567044 
L 1904.036649 367.167781 
L 1910.981786 365.215308 
L 1917.926924 387.87748 
L 1924.872061 313.90227 
L 1931.817199 369.499209 
L 1938.762336 428.53451 
L 1945.707474 422.105855 
L 1952.652611 458.695723 
L 1959.597748 505.947273 
L 1966.542886 460.577391 
L 1973.488023 375.707139 
L 1980.433161 379.143746 
L 1987.378298 375.119621 
L 1994.323436 389.268311 
L 2001.268573 370.834301 
L 2008.21371 396.759851 
L 2015.158848 343.924913 
L 2022.103985 332.100827 
L 2029.049123 383.300563 
L 2035.99426 435.289896 
L 2042.939397 444.786877 
L 2049.884535 423.00301 
L 2056.829672 440.511084 
L 2063.77481 474.878501 
L 2070.719947 371.725848 
L 2077.665085 384.432023 
L 2084.610222 378.496232 
L 2091.555359 372.736508 
L 2098.500497 368.178237 
L 2105.445634 362.334669 
L 2112.390772 434.690148 
L 2119.335909 347.980185 
" clip-path="url(#pa8637d9d2e)" style="fill: none; stroke: #0000ff; stroke-width: 2; stroke-linecap: square"/>
   </g>
   <g id="line2d_42">
    <path d="M 1522.054091 176.535094 
L 1528.999228 443.880061 
L 1535.944366 420.700769 
L 1542.889503 429.151284 
L 1549.834641 407.261547 
L 1556.779778 393.369187 
L 1563.724915 304.857278 
L 1570.670053 256.942607 
L 1577.61519 204.354 
L 1584.560328 190.00384 
L 1591.505465 211.045607 
L 1598.450603 272.618063 
L 1605.39574 357.995164 
L 1612.340877 410.490603 
L 1619.286015 415.569438 
L 1626.231152 375.155631 
L 1633.17629 245.391945 
L 1640.121427 147.903822 
L 1647.066564 106.667381 
L 1654.011702 102.492727 
L 1660.956839 159.279905 
L 1667.901977 257.090028 
L 1674.847114 247.298813 
L 1681.792252 158.374169 
L 1688.737389 185.705143 
L 1695.682526 271.98244 
L 1702.627664 202.939929 
L 1709.572801 188.190613 
L 1716.517939 227.315067 
L 1723.463076 281.667312 
L 1730.408214 290.878574 
L 1737.353351 265.443253 
L 1744.298488 279.69734 
L 1751.243626 287.959222 
L 1758.188763 269.615069 
L 1765.133901 209.97975 
L 1772.079038 159.542856 
L 1779.024175 203.234769 
L 1785.969313 206.984998 
L 1792.91445 281.06601 
L 1799.859588 275.225549 
L 1806.804725 244.230149 
L 1813.749863 175.222365 
L 1820.695 154.140602 
L 1827.640137 160.36522 
L 1834.585275 218.794558 
L 1841.530412 268.00777 
L 1848.47555 314.300481 
L 1855.420687 299.489886 
L 1862.365825 282.700604 
L 1869.310962 297.545453 
L 1876.256099 258.326276 
L 1883.201237 253.993663 
L 1890.146374 259.676975 
L 1897.091512 247.23463 
L 1904.036649 295.699795 
L 1910.981786 345.233453 
L 1917.926924 346.333902 
L 1924.872061 280.319045 
L 1931.817199 277.595487 
L 1938.762336 305.876518 
L 1945.707474 262.104611 
L 1952.652611 261.717076 
L 1959.597748 283.553912 
L 1966.542886 298.366871 
L 1973.488023 309.852134 
L 1980.433161 302.843256 
L 1987.378298 342.988775 
L 1994.323436 343.979503 
L 2001.268573 285.029735 
L 2008.21371 296.940233 
L 2015.158848 317.8412 
L 2022.103985 310.439923 
L 2029.049123 305.723693 
L 2035.99426 305.756663 
L 2042.939397 269.133893 
L 2049.884535 238.68588 
L 2056.829672 257.17475 
L 2063.77481 221.193278 
L 2070.719947 205.379996 
L 2077.665085 271.493156 
L 2084.610222 298.867775 
L 2091.555359 333.384707 
L 2098.500497 358.169609 
L 2105.445634 327.831047 
L 2112.390772 309.642286 
L 2119.335909 108.933814 
" clip-path="url(#pa8637d9d2e)" style="fill: none; stroke-dasharray: 7.4,3.2; stroke-dashoffset: 0; stroke: #ff0000; stroke-width: 2"/>
   </g>
   <g id="patch_14">
    <path d="M 1492.19 526.12 
L 1492.19 82.32 
" style="fill: none; stroke: #000000; stroke-width: 0.8; stroke-linejoin: miter; stroke-linecap: square"/>
   </g>
   <g id="patch_15">
    <path d="M 2149.2 526.12 
L 2149.2 82.32 
" style="fill: none; stroke: #000000; stroke-width: 0.8; stroke-linejoin: miter; stroke-linecap: square"/>
   </g>
   <g id="patch_16">
    <path d="M 1492.19 526.12 
L 2149.2 526.12 
" style="fill: none; stroke: #000000; stroke-width: 0.8; stroke-linejoin: miter; stroke-linecap: square"/>
   </g>
   <g id="patch_17">
    <path d="M 1492.19 82.32 
L 2149.2 82.32 
" style="fill: none; stroke: #000000; stroke-width: 0.8; stroke-linejoin: miter; stroke-linecap: square"/>
   </g>
   <g id="text_45">
    <!-- Std Over Coefficients -->
    <g transform="translate(1730.736016 76.32) scale(0.15 -0.15)">
     <defs>
      <path id="DejaVuSans-Bold-53" d="M 3834 4519 
L 3834 3531 
Q 3450 3703 3084 3790 
Q 2719 3878 2394 3878 
Q 1963 3878 1756 3759 
Q 1550 3641 1550 3391 
Q 1550 3203 1689 3098 
Q 1828 2994 2194 2919 
L 2706 2816 
Q 3484 2659 3812 2340 
Q 4141 2022 4141 1434 
Q 4141 663 3683 286 
Q 3225 -91 2284 -91 
Q 1841 -91 1394 -6 
Q 947 78 500 244 
L 500 1259 
Q 947 1022 1364 901 
Q 1781 781 2169 781 
Q 2563 781 2772 912 
Q 2981 1044 2981 1288 
Q 2981 1506 2839 1625 
Q 2697 1744 2272 1838 
L 1806 1941 
Q 1106 2091 782 2419 
Q 459 2747 459 3303 
Q 459 4000 909 4375 
Q 1359 4750 2203 4750 
Q 2588 4750 2994 4692 
Q 3400 4634 3834 4519 
z
" transform="scale(0.015625)"/>
      <path id="DejaVuSans-Bold-64" d="M 2919 2988 
L 2919 4863 
L 4044 4863 
L 4044 0 
L 2919 0 
L 2919 506 
Q 2688 197 2409 53 
Q 2131 -91 1766 -91 
Q 1119 -91 703 423 
Q 288 938 288 1747 
Q 288 2556 703 3070 
Q 1119 3584 1766 3584 
Q 2128 3584 2408 3439 
Q 2688 3294 2919 2988 
z
M 2181 722 
Q 2541 722 2730 984 
Q 2919 1247 2919 1747 
Q 2919 2247 2730 2509 
Q 2541 2772 2181 2772 
Q 1825 2772 1636 2509 
Q 1447 2247 1447 1747 
Q 1447 1247 1636 984 
Q 1825 722 2181 722 
z
" transform="scale(0.015625)"/>
     </defs>
     <use xlink:href="#DejaVuSans-Bold-53"/>
     <use xlink:href="#DejaVuSans-Bold-74" x="72.021484"/>
     <use xlink:href="#DejaVuSans-Bold-64" x="119.824219"/>
     <use xlink:href="#DejaVuSans-Bold-20" x="191.40625"/>
     <use xlink:href="#DejaVuSans-Bold-4f" x="226.220703"/>
     <use xlink:href="#DejaVuSans-Bold-76" x="311.230469"/>
     <use xlink:href="#DejaVuSans-Bold-65" x="376.416016"/>
     <use xlink:href="#DejaVuSans-Bold-72" x="444.238281"/>
     <use xlink:href="#DejaVuSans-Bold-20" x="493.554688"/>
     <use xlink:href="#DejaVuSans-Bold-43" x="528.369141"/>
     <use xlink:href="#DejaVuSans-Bold-6f" x="601.757812"/>
     <use xlink:href="#DejaVuSans-Bold-65" x="670.458984"/>
     <use xlink:href="#DejaVuSans-Bold-66" x="738.28125"/>
     <use xlink:href="#DejaVuSans-Bold-66" x="781.787109"/>
     <use xlink:href="#DejaVuSans-Bold-69" x="825.292969"/>
     <use xlink:href="#DejaVuSans-Bold-63" x="859.570312"/>
     <use xlink:href="#DejaVuSans-Bold-69" x="918.847656"/>
     <use xlink:href="#DejaVuSans-Bold-65" x="953.125"/>
     <use xlink:href="#DejaVuSans-Bold-6e" x="1020.947266"/>
     <use xlink:href="#DejaVuSans-Bold-74" x="1092.138672"/>
     <use xlink:href="#DejaVuSans-Bold-73" x="1139.941406"/>
    </g>
   </g>
  </g>
  <g id="axes_4">
   <g id="patch_18">
    <path d="M 50.87 1033.72 
L 707.88 1033.72 
L 707.88 589.92 
L 50.87 589.92 
z
" style="fill: #ffffff"/>
   </g>
   <g id="matplotlib.axis_7">
    <g id="xtick_16">
     <g id="line2d_43">
      <g>
       <use xlink:href="#m66cf116772" x="73.788953" y="1033.72" style="stroke: #000000; stroke-width: 0.8"/>
      </g>
     </g>
     <g id="text_46">
      <!-- 0 -->
      <g transform="translate(70.607703 1048.318438) scale(0.1 -0.1)">
       <use xlink:href="#DejaVuSans-30"/>
      </g>
     </g>
    </g>
    <g id="xtick_17">
     <g id="line2d_44">
      <g>
       <use xlink:href="#m66cf116772" x="212.691702" y="1033.72" style="stroke: #000000; stroke-width: 0.8"/>
      </g>
     </g>
     <g id="text_47">
      <!-- 20 -->
      <g transform="translate(206.329202 1048.318438) scale(0.1 -0.1)">
       <use xlink:href="#DejaVuSans-32"/>
       <use xlink:href="#DejaVuSans-30" x="63.623047"/>
      </g>
     </g>
    </g>
    <g id="xtick_18">
     <g id="line2d_45">
      <g>
       <use xlink:href="#m66cf116772" x="351.59445" y="1033.72" style="stroke: #000000; stroke-width: 0.8"/>
      </g>
     </g>
     <g id="text_48">
      <!-- 40 -->
      <g transform="translate(345.23195 1048.318438) scale(0.1 -0.1)">
       <use xlink:href="#DejaVuSans-34"/>
       <use xlink:href="#DejaVuSans-30" x="63.623047"/>
      </g>
     </g>
    </g>
    <g id="xtick_19">
     <g id="line2d_46">
      <g>
       <use xlink:href="#m66cf116772" x="490.497199" y="1033.72" style="stroke: #000000; stroke-width: 0.8"/>
      </g>
     </g>
     <g id="text_49">
      <!-- 60 -->
      <g transform="translate(484.134699 1048.318438) scale(0.1 -0.1)">
       <use xlink:href="#DejaVuSans-36"/>
       <use xlink:href="#DejaVuSans-30" x="63.623047"/>
      </g>
     </g>
    </g>
    <g id="xtick_20">
     <g id="line2d_47">
      <g>
       <use xlink:href="#m66cf116772" x="629.399947" y="1033.72" style="stroke: #000000; stroke-width: 0.8"/>
      </g>
     </g>
     <g id="text_50">
      <!-- 80 -->
      <g transform="translate(623.037447 1048.318438) scale(0.1 -0.1)">
       <use xlink:href="#DejaVuSans-38"/>
       <use xlink:href="#DejaVuSans-30" x="63.623047"/>
      </g>
     </g>
    </g>
    <g id="text_51">
     <!-- Time Frames -->
     <g transform="translate(331.364453 1065.795781) scale(0.15 -0.15)">
      <use xlink:href="#DejaVuSans-54"/>
      <use xlink:href="#DejaVuSans-69" x="57.958984"/>
      <use xlink:href="#DejaVuSans-6d" x="85.742188"/>
      <use xlink:href="#DejaVuSans-65" x="183.154297"/>
      <use xlink:href="#DejaVuSans-20" x="244.677734"/>
      <use xlink:href="#DejaVuSans-46" x="276.464844"/>
      <use xlink:href="#DejaVuSans-72" x="326.734375"/>
      <use xlink:href="#DejaVuSans-61" x="367.847656"/>
      <use xlink:href="#DejaVuSans-6d" x="429.126953"/>
      <use xlink:href="#DejaVuSans-65" x="526.539062"/>
      <use xlink:href="#DejaVuSans-73" x="588.0625"/>
     </g>
    </g>
   </g>
   <g id="matplotlib.axis_8">
    <g id="ytick_20">
     <g id="line2d_48">
      <g>
       <use xlink:href="#mfa0431f4bd" x="50.87" y="983.295245" style="stroke: #000000; stroke-width: 0.8"/>
      </g>
     </g>
     <g id="text_52">
      <!-- −2 -->
      <g transform="translate(29.127813 987.094463) scale(0.1 -0.1)">
       <use xlink:href="#DejaVuSans-2212"/>
       <use xlink:href="#DejaVuSans-32" x="83.789062"/>
      </g>
     </g>
    </g>
    <g id="ytick_21">
     <g id="line2d_49">
      <g>
       <use xlink:href="#mfa0431f4bd" x="50.87" y="927.081822" style="stroke: #000000; stroke-width: 0.8"/>
      </g>
     </g>
     <g id="text_53">
      <!-- 0 -->
      <g transform="translate(37.5075 930.881041) scale(0.1 -0.1)">
       <use xlink:href="#DejaVuSans-30"/>
      </g>
     </g>
    </g>
    <g id="ytick_22">
     <g id="line2d_50">
      <g>
       <use xlink:href="#mfa0431f4bd" x="50.87" y="870.8684" style="stroke: #000000; stroke-width: 0.8"/>
      </g>
     </g>
     <g id="text_54">
      <!-- 2 -->
      <g transform="translate(37.5075 874.667618) scale(0.1 -0.1)">
       <use xlink:href="#DejaVuSans-32"/>
      </g>
     </g>
    </g>
    <g id="ytick_23">
     <g id="line2d_51">
      <g>
       <use xlink:href="#mfa0431f4bd" x="50.87" y="814.654977" style="stroke: #000000; stroke-width: 0.8"/>
      </g>
     </g>
     <g id="text_55">
      <!-- 4 -->
      <g transform="translate(37.5075 818.454196) scale(0.1 -0.1)">
       <use xlink:href="#DejaVuSans-34"/>
      </g>
     </g>
    </g>
    <g id="ytick_24">
     <g id="line2d_52">
      <g>
       <use xlink:href="#mfa0431f4bd" x="50.87" y="758.441554" style="stroke: #000000; stroke-width: 0.8"/>
      </g>
     </g>
     <g id="text_56">
      <!-- 6 -->
      <g transform="translate(37.5075 762.240773) scale(0.1 -0.1)">
       <use xlink:href="#DejaVuSans-36"/>
      </g>
     </g>
    </g>
    <g id="ytick_25">
     <g id="line2d_53">
      <g>
       <use xlink:href="#mfa0431f4bd" x="50.87" y="702.228132" style="stroke: #000000; stroke-width: 0.8"/>
      </g>
     </g>
     <g id="text_57">
      <!-- 8 -->
      <g transform="translate(37.5075 706.02735) scale(0.1 -0.1)">
       <use xlink:href="#DejaVuSans-38"/>
      </g>
     </g>
    </g>
    <g id="ytick_26">
     <g id="line2d_54">
      <g>
       <use xlink:href="#mfa0431f4bd" x="50.87" y="646.014709" style="stroke: #000000; stroke-width: 0.8"/>
      </g>
     </g>
     <g id="text_58">
      <!-- 10 -->
      <g transform="translate(31.145 649.813928) scale(0.1 -0.1)">
       <use xlink:href="#DejaVuSans-31"/>
       <use xlink:href="#DejaVuSans-30" x="63.623047"/>
      </g>
     </g>
    </g>
    <g id="text_59">
     <!-- Amplitude -->
     <g transform="translate(22.008281 850.253984) rotate(-90) scale(0.15 -0.15)">
      <use xlink:href="#DejaVuSans-41"/>
      <use xlink:href="#DejaVuSans-6d" x="68.408203"/>
      <use xlink:href="#DejaVuSans-70" x="165.820312"/>
      <use xlink:href="#DejaVuSans-6c" x="229.296875"/>
      <use xlink:href="#DejaVuSans-69" x="257.080078"/>
      <use xlink:href="#DejaVuSans-74" x="284.863281"/>
      <use xlink:href="#DejaVuSans-75" x="324.072266"/>
      <use xlink:href="#DejaVuSans-64" x="387.451172"/>
      <use xlink:href="#DejaVuSans-65" x="450.927734"/>
     </g>
    </g>
   </g>
   <g id="line2d_55">
    <path d="M 80.734091 879.778546 
L 87.679228 905.856903 
L 94.624366 909.381459 
L 101.569503 769.185394 
L 108.514641 808.827271 
L 115.459778 943.037502 
L 122.404915 911.274146 
L 129.350053 867.704111 
L 136.29519 820.430601 
L 143.240328 765.977467 
L 150.185465 697.943007 
L 157.130603 760.334472 
L 164.07574 745.12668 
L 171.020877 946.911126 
L 177.966015 977.487019 
L 184.911152 991.210651 
L 191.85629 922.190808 
L 198.801427 819.291055 
L 205.746564 783.690783 
L 212.691702 763.115937 
L 219.636839 820.926146 
L 226.581977 883.445844 
L 233.527114 848.483502 
L 240.472252 846.661443 
L 247.417389 869.110859 
L 254.362526 883.342271 
L 261.307664 879.70294 
L 268.252801 898.340001 
L 275.197939 917.772852 
L 282.143076 848.203092 
L 289.088214 897.91296 
L 296.033351 838.355104 
L 302.978488 815.403289 
L 309.923626 849.241424 
L 316.868763 801.29172 
L 323.813901 861.728503 
L 330.759038 780.910042 
L 337.704175 922.501663 
L 344.649313 869.536765 
L 351.59445 874.179095 
L 358.539588 857.412104 
L 365.484725 858.920502 
L 372.429863 850.013043 
L 379.375 885.217189 
L 386.320137 888.361884 
L 393.265275 905.269703 
L 400.210412 771.745747 
L 407.15555 868.838256 
L 414.100687 913.12989 
L 421.045825 868.068205 
L 427.990962 886.841631 
L 434.936099 895.783723 
L 441.881237 944.360042 
L 448.826374 884.817448 
L 455.771512 876.691813 
L 462.716649 971.990642 
L 469.661786 966.808322 
L 476.606924 888.330948 
L 483.552061 950.67834 
L 490.497199 934.812351 
L 497.442336 920.827436 
L 504.387474 855.78864 
L 511.332611 890.06743 
L 518.277748 881.329738 
L 525.222886 830.068119 
L 532.168023 820.981692 
L 539.113161 841.304755 
L 546.058298 886.090649 
L 553.003436 858.173637 
L 559.948573 859.568129 
L 566.89371 889.97607 
L 573.838848 924.907166 
L 580.783985 879.232897 
L 587.729123 908.011105 
L 594.67426 898.303628 
L 601.619397 798.515335 
L 608.564535 748.703318 
L 615.509672 839.05358 
L 622.45481 851.251136 
L 629.399947 864.176277 
L 636.345085 951.527012 
L 643.290222 867.263188 
L 650.235359 849.89986 
L 657.180497 825.425024 
L 664.125634 788.04753 
L 671.070772 1013.547273 
L 678.015909 986.222909 
" clip-path="url(#p812a9d37ff)" style="fill: none; stroke: #0000ff; stroke-width: 2; stroke-linecap: square"/>
   </g>
   <g id="line2d_56">
    <path d="M 80.734091 629.966364 
L 87.679228 646.932715 
L 94.624366 640.043598 
L 101.569503 625.24309 
L 108.514641 680.273248 
L 115.459778 610.092727 
L 122.404915 664.761291 
L 129.350053 683.052783 
L 136.29519 738.9854 
L 143.240328 732.809314 
L 150.185465 834.153777 
L 157.130603 807.654259 
L 164.07574 753.957914 
L 171.020877 784.541147 
L 177.966015 743.013375 
L 184.911152 655.000592 
L 191.85629 768.474695 
L 198.801427 891.574836 
L 205.746564 858.77496 
L 212.691702 804.755511 
L 219.636839 821.188999 
L 226.581977 825.618869 
L 233.527114 751.957242 
L 240.472252 781.96451 
L 247.417389 799.696455 
L 254.362526 840.951128 
L 261.307664 868.448074 
L 268.252801 848.857849 
L 275.197939 791.716952 
L 282.143076 794.111385 
L 289.088214 911.747136 
L 296.033351 846.393799 
L 302.978488 817.178581 
L 309.923626 724.54654 
L 316.868763 721.077697 
L 323.813901 776.926174 
L 330.759038 811.303833 
L 337.704175 816.923789 
L 344.649313 783.759631 
L 351.59445 887.667858 
L 358.539588 960.693753 
L 365.484725 882.620462 
L 372.429863 791.485414 
L 379.375 842.628315 
L 386.320137 810.716758 
L 393.265275 835.760649 
L 400.210412 820.356647 
L 407.15555 859.867437 
L 414.100687 815.895912 
L 421.045825 817.87587 
L 427.990962 824.366067 
L 434.936099 838.237184 
L 441.881237 811.562364 
L 448.826374 830.255001 
L 455.771512 823.214204 
L 462.716649 861.740907 
L 469.661786 922.103852 
L 476.606924 932.805569 
L 483.552061 955.690631 
L 490.497199 797.488503 
L 497.442336 794.147142 
L 504.387474 835.284196 
L 511.332611 863.126292 
L 518.277748 887.509643 
L 525.222886 921.515066 
L 532.168023 848.363498 
L 539.113161 908.089274 
L 546.058298 969.07054 
L 553.003436 886.351602 
L 559.948573 791.464533 
L 566.89371 793.327858 
L 573.838848 870.693593 
L 580.783985 1001.929629 
L 587.729123 867.586492 
L 594.67426 816.885164 
L 601.619397 741.070909 
L 608.564535 824.998717 
L 615.509672 793.880101 
L 622.45481 795.219449 
L 629.399947 853.088253 
L 636.345085 798.224424 
L 643.290222 845.882379 
L 650.235359 899.816886 
L 657.180497 831.144359 
L 664.125634 702.940412 
L 671.070772 704.869985 
L 678.015909 910.582385 
" clip-path="url(#p812a9d37ff)" style="fill: none; stroke-dasharray: 7.4,3.2; stroke-dashoffset: 0; stroke: #ff0000; stroke-width: 2"/>
   </g>
   <g id="patch_19">
    <path d="M 50.87 1033.72 
L 50.87 589.92 
" style="fill: none; stroke: #000000; stroke-width: 0.8; stroke-linejoin: miter; stroke-linecap: square"/>
   </g>
   <g id="patch_20">
    <path d="M 707.88 1033.72 
L 707.88 589.92 
" style="fill: none; stroke: #000000; stroke-width: 0.8; stroke-linejoin: miter; stroke-linecap: square"/>
   </g>
   <g id="patch_21">
    <path d="M 50.87 1033.72 
L 707.88 1033.72 
" style="fill: none; stroke: #000000; stroke-width: 0.8; stroke-linejoin: miter; stroke-linecap: square"/>
   </g>
   <g id="patch_22">
    <path d="M 50.87 589.92 
L 707.88 589.92 
" style="fill: none; stroke: #000000; stroke-width: 0.8; stroke-linejoin: miter; stroke-linecap: square"/>
   </g>
   <g id="text_60">
    <!-- Median Over Coefficients -->
    <g transform="translate(272.879688 583.92) scale(0.15 -0.15)">
     <use xlink:href="#DejaVuSans-Bold-4d"/>
     <use xlink:href="#DejaVuSans-Bold-65" x="99.511719"/>
     <use xlink:href="#DejaVuSans-Bold-64" x="167.333984"/>
     <use xlink:href="#DejaVuSans-Bold-69" x="238.916016"/>
     <use xlink:href="#DejaVuSans-Bold-61" x="273.193359"/>
     <use xlink:href="#DejaVuSans-Bold-6e" x="340.673828"/>
     <use xlink:href="#DejaVuSans-Bold-20" x="411.865234"/>
     <use xlink:href="#DejaVuSans-Bold-4f" x="446.679688"/>
     <use xlink:href="#DejaVuSans-Bold-76" x="531.689453"/>
     <use xlink:href="#DejaVuSans-Bold-65" x="596.875"/>
     <use xlink:href="#DejaVuSans-Bold-72" x="664.697266"/>
     <use xlink:href="#DejaVuSans-Bold-20" x="714.013672"/>
     <use xlink:href="#DejaVuSans-Bold-43" x="748.828125"/>
     <use xlink:href="#DejaVuSans-Bold-6f" x="822.216797"/>
     <use xlink:href="#DejaVuSans-Bold-65" x="890.917969"/>
     <use xlink:href="#DejaVuSans-Bold-66" x="958.740234"/>
     <use xlink:href="#DejaVuSans-Bold-66" x="1002.246094"/>
     <use xlink:href="#DejaVuSans-Bold-69" x="1045.751953"/>
     <use xlink:href="#DejaVuSans-Bold-63" x="1080.029297"/>
     <use xlink:href="#DejaVuSans-Bold-69" x="1139.306641"/>
     <use xlink:href="#DejaVuSans-Bold-65" x="1173.583984"/>
     <use xlink:href="#DejaVuSans-Bold-6e" x="1241.40625"/>
     <use xlink:href="#DejaVuSans-Bold-74" x="1312.597656"/>
     <use xlink:href="#DejaVuSans-Bold-73" x="1360.400391"/>
    </g>
   </g>
  </g>
  <g id="axes_5">
   <g id="patch_23">
    <path d="M 771.53 1033.72 
L 1428.54 1033.72 
L 1428.54 589.92 
L 771.53 589.92 
z
" style="fill: #ffffff"/>
   </g>
   <g id="matplotlib.axis_9">
    <g id="xtick_21">
     <g id="line2d_57">
      <g>
       <use xlink:href="#m66cf116772" x="794.448953" y="1033.72" style="stroke: #000000; stroke-width: 0.8"/>
      </g>
     </g>
     <g id="text_61">
      <!-- 0 -->
      <g transform="translate(791.267703 1048.318438) scale(0.1 -0.1)">
       <use xlink:href="#DejaVuSans-30"/>
      </g>
     </g>
    </g>
    <g id="xtick_22">
     <g id="line2d_58">
      <g>
       <use xlink:href="#m66cf116772" x="933.351702" y="1033.72" style="stroke: #000000; stroke-width: 0.8"/>
      </g>
     </g>
     <g id="text_62">
      <!-- 20 -->
      <g transform="translate(926.989202 1048.318438) scale(0.1 -0.1)">
       <use xlink:href="#DejaVuSans-32"/>
       <use xlink:href="#DejaVuSans-30" x="63.623047"/>
      </g>
     </g>
    </g>
    <g id="xtick_23">
     <g id="line2d_59">
      <g>
       <use xlink:href="#m66cf116772" x="1072.25445" y="1033.72" style="stroke: #000000; stroke-width: 0.8"/>
      </g>
     </g>
     <g id="text_63">
      <!-- 40 -->
      <g transform="translate(1065.89195 1048.318438) scale(0.1 -0.1)">
       <use xlink:href="#DejaVuSans-34"/>
       <use xlink:href="#DejaVuSans-30" x="63.623047"/>
      </g>
     </g>
    </g>
    <g id="xtick_24">
     <g id="line2d_60">
      <g>
       <use xlink:href="#m66cf116772" x="1211.157199" y="1033.72" style="stroke: #000000; stroke-width: 0.8"/>
      </g>
     </g>
     <g id="text_64">
      <!-- 60 -->
      <g transform="translate(1204.794699 1048.318438) scale(0.1 -0.1)">
       <use xlink:href="#DejaVuSans-36"/>
       <use xlink:href="#DejaVuSans-30" x="63.623047"/>
      </g>
     </g>
    </g>
    <g id="xtick_25">
     <g id="line2d_61">
      <g>
       <use xlink:href="#m66cf116772" x="1350.059947" y="1033.72" style="stroke: #000000; stroke-width: 0.8"/>
      </g>
     </g>
     <g id="text_65">
      <!-- 80 -->
      <g transform="translate(1343.697447 1048.318438) scale(0.1 -0.1)">
       <use xlink:href="#DejaVuSans-38"/>
       <use xlink:href="#DejaVuSans-30" x="63.623047"/>
      </g>
     </g>
    </g>
    <g id="text_66">
     <!-- Time Frames -->
     <g transform="translate(1052.024453 1065.795781) scale(0.15 -0.15)">
      <use xlink:href="#DejaVuSans-54"/>
      <use xlink:href="#DejaVuSans-69" x="57.958984"/>
      <use xlink:href="#DejaVuSans-6d" x="85.742188"/>
      <use xlink:href="#DejaVuSans-65" x="183.154297"/>
      <use xlink:href="#DejaVuSans-20" x="244.677734"/>
      <use xlink:href="#DejaVuSans-46" x="276.464844"/>
      <use xlink:href="#DejaVuSans-72" x="326.734375"/>
      <use xlink:href="#DejaVuSans-61" x="367.847656"/>
      <use xlink:href="#DejaVuSans-6d" x="429.126953"/>
      <use xlink:href="#DejaVuSans-65" x="526.539062"/>
      <use xlink:href="#DejaVuSans-73" x="588.0625"/>
     </g>
    </g>
   </g>
   <g id="matplotlib.axis_10">
    <g id="ytick_27">
     <g id="line2d_62">
      <g>
       <use xlink:href="#mfa0431f4bd" x="771.53" y="967.056427" style="stroke: #000000; stroke-width: 0.8"/>
      </g>
     </g>
     <g id="text_67">
      <!-- 10 -->
      <g transform="translate(751.805 970.855646) scale(0.1 -0.1)">
       <use xlink:href="#DejaVuSans-31"/>
       <use xlink:href="#DejaVuSans-30" x="63.623047"/>
      </g>
     </g>
    </g>
    <g id="ytick_28">
     <g id="line2d_63">
      <g>
       <use xlink:href="#mfa0431f4bd" x="771.53" y="879.127217" style="stroke: #000000; stroke-width: 0.8"/>
      </g>
     </g>
     <g id="text_68">
      <!-- 15 -->
      <g transform="translate(751.805 882.926436) scale(0.1 -0.1)">
       <use xlink:href="#DejaVuSans-31"/>
       <use xlink:href="#DejaVuSans-35" x="63.623047"/>
      </g>
     </g>
    </g>
    <g id="ytick_29">
     <g id="line2d_64">
      <g>
       <use xlink:href="#mfa0431f4bd" x="771.53" y="791.198007" style="stroke: #000000; stroke-width: 0.8"/>
      </g>
     </g>
     <g id="text_69">
      <!-- 20 -->
      <g transform="translate(751.805 794.997225) scale(0.1 -0.1)">
       <use xlink:href="#DejaVuSans-32"/>
       <use xlink:href="#DejaVuSans-30" x="63.623047"/>
      </g>
     </g>
    </g>
    <g id="ytick_30">
     <g id="line2d_65">
      <g>
       <use xlink:href="#mfa0431f4bd" x="771.53" y="703.268797" style="stroke: #000000; stroke-width: 0.8"/>
      </g>
     </g>
     <g id="text_70">
      <!-- 25 -->
      <g transform="translate(751.805 707.068015) scale(0.1 -0.1)">
       <use xlink:href="#DejaVuSans-32"/>
       <use xlink:href="#DejaVuSans-35" x="63.623047"/>
      </g>
     </g>
    </g>
    <g id="ytick_31">
     <g id="line2d_66">
      <g>
       <use xlink:href="#mfa0431f4bd" x="771.53" y="615.339587" style="stroke: #000000; stroke-width: 0.8"/>
      </g>
     </g>
     <g id="text_71">
      <!-- 30 -->
      <g transform="translate(751.805 619.138805) scale(0.1 -0.1)">
       <use xlink:href="#DejaVuSans-33"/>
       <use xlink:href="#DejaVuSans-30" x="63.623047"/>
      </g>
     </g>
    </g>
    <g id="text_72">
     <!-- Amplitude -->
     <g transform="translate(744.685469 850.253984) rotate(-90) scale(0.15 -0.15)">
      <use xlink:href="#DejaVuSans-41"/>
      <use xlink:href="#DejaVuSans-6d" x="68.408203"/>
      <use xlink:href="#DejaVuSans-70" x="165.820312"/>
      <use xlink:href="#DejaVuSans-6c" x="229.296875"/>
      <use xlink:href="#DejaVuSans-69" x="257.080078"/>
      <use xlink:href="#DejaVuSans-74" x="284.863281"/>
      <use xlink:href="#DejaVuSans-75" x="324.072266"/>
      <use xlink:href="#DejaVuSans-64" x="387.451172"/>
      <use xlink:href="#DejaVuSans-65" x="450.927734"/>
     </g>
    </g>
   </g>
   <g id="line2d_67">
    <path d="M 801.394091 897.645871 
L 808.339228 823.148168 
L 815.284366 840.702488 
L 822.229503 821.501843 
L 829.174641 832.615181 
L 836.119778 859.423177 
L 843.064915 823.086458 
L 850.010053 878.462215 
L 856.95519 820.295208 
L 863.900328 871.28367 
L 870.845465 779.20498 
L 877.790603 746.364169 
L 884.73574 776.695409 
L 891.680877 880.681862 
L 898.626015 915.726915 
L 905.571152 902.287107 
L 912.51629 830.664082 
L 919.461427 815.280529 
L 926.406564 826.314128 
L 933.351702 899.526246 
L 940.296839 856.292096 
L 947.241977 868.503413 
L 954.187114 838.976375 
L 961.132252 891.27905 
L 968.077389 876.484115 
L 975.022526 912.181038 
L 981.967664 906.15167 
L 988.912801 971.573562 
L 995.857939 876.063075 
L 1002.803076 908.834117 
L 1009.748214 954.962932 
L 1016.693351 938.532053 
L 1023.638488 952.831812 
L 1030.583626 932.233214 
L 1037.528763 915.8027 
L 1044.473901 961.518907 
L 1051.419038 939.956055 
L 1058.364175 872.967964 
L 1065.309313 918.066585 
L 1072.25445 937.433408 
L 1079.199588 924.651079 
L 1086.144725 948.708755 
L 1093.089863 949.645852 
L 1100.035 899.470574 
L 1106.980137 926.791935 
L 1113.925275 930.284841 
L 1120.870412 851.231971 
L 1127.81555 878.841445 
L 1134.760687 926.487471 
L 1141.705825 933.266645 
L 1148.650962 947.520505 
L 1155.596099 948.232303 
L 1162.541237 946.543027 
L 1169.486374 955.606878 
L 1176.431512 928.25589 
L 1183.376649 835.955016 
L 1190.321786 902.626773 
L 1197.266924 988.320244 
L 1204.212061 999.10833 
L 1211.157199 950.682511 
L 1218.102336 938.965898 
L 1225.047474 885.340674 
L 1231.992611 880.562116 
L 1238.937748 916.666168 
L 1245.882886 891.190129 
L 1252.828023 891.430276 
L 1259.773161 987.415863 
L 1266.718298 968.928051 
L 1273.663436 968.24084 
L 1280.608573 898.414997 
L 1287.55371 887.636638 
L 1294.498848 883.102704 
L 1301.443985 884.835233 
L 1308.389123 887.433875 
L 1315.33426 914.610065 
L 1322.279397 772.158088 
L 1329.224535 840.545083 
L 1336.169672 903.600373 
L 1343.11481 914.339001 
L 1350.059947 833.706137 
L 1357.005085 896.341829 
L 1363.950222 935.508225 
L 1370.895359 855.367489 
L 1377.840497 838.222645 
L 1384.785634 892.838156 
L 1391.730772 969.993326 
L 1398.675909 882.801444 
" clip-path="url(#p73f09e2db9)" style="fill: none; stroke: #0000ff; stroke-width: 2; stroke-linecap: square"/>
   </g>
   <g id="line2d_68">
    <path d="M 801.394091 796.857009 
L 808.339228 787.846327 
L 815.284366 846.613362 
L 822.229503 867.298914 
L 829.174641 915.379405 
L 836.119778 829.106069 
L 843.064915 809.852458 
L 850.010053 858.22533 
L 856.95519 956.805754 
L 863.900328 931.300788 
L 870.845465 883.210312 
L 877.790603 900.130419 
L 884.73574 851.27888 
L 891.680877 764.649113 
L 898.626015 889.202994 
L 905.571152 858.015585 
L 912.51629 885.393679 
L 919.461427 893.559103 
L 926.406564 807.478398 
L 933.351702 804.538228 
L 940.296839 907.529857 
L 947.241977 973.842693 
L 954.187114 838.63956 
L 961.132252 891.348399 
L 968.077389 836.132019 
L 975.022526 908.593568 
L 981.967664 870.129797 
L 988.912801 873.142921 
L 995.857939 802.321348 
L 1002.803076 942.152583 
L 1009.748214 917.238911 
L 1016.693351 853.140627 
L 1023.638488 848.205975 
L 1030.583626 925.08914 
L 1037.528763 844.641935 
L 1044.473901 855.505818 
L 1051.419038 878.312541 
L 1058.364175 916.997792 
L 1065.309313 957.399917 
L 1072.25445 993.824741 
L 1079.199588 908.721297 
L 1086.144725 873.164162 
L 1093.089863 923.048531 
L 1100.035 916.034465 
L 1106.980137 918.102178 
L 1113.925275 1013.547273 
L 1120.870412 995.395773 
L 1127.81555 1010.038032 
L 1134.760687 915.45539 
L 1141.705825 857.877479 
L 1148.650962 897.713702 
L 1155.596099 886.234351 
L 1162.541237 882.420831 
L 1169.486374 893.633336 
L 1176.431512 946.957185 
L 1183.376649 979.649432 
L 1190.321786 928.036741 
L 1197.266924 934.365928 
L 1204.212061 958.01154 
L 1211.157199 913.041223 
L 1218.102336 869.145639 
L 1225.047474 941.735945 
L 1231.992611 895.301115 
L 1238.937748 926.725731 
L 1245.882886 926.648605 
L 1252.828023 1000.96381 
L 1259.773161 916.523085 
L 1266.718298 828.984098 
L 1273.663436 810.122699 
L 1280.608573 883.769299 
L 1287.55371 899.811331 
L 1294.498848 962.816362 
L 1301.443985 959.27604 
L 1308.389123 919.853477 
L 1315.33426 851.852983 
L 1322.279397 928.352559 
L 1329.224535 973.512317 
L 1336.169672 874.25038 
L 1343.11481 885.688713 
L 1350.059947 871.383718 
L 1357.005085 928.022385 
L 1363.950222 880.649506 
L 1370.895359 939.758604 
L 1377.840497 889.995981 
L 1384.785634 899.810601 
L 1391.730772 803.116788 
L 1398.675909 610.092727 
" clip-path="url(#p73f09e2db9)" style="fill: none; stroke-dasharray: 7.4,3.2; stroke-dashoffset: 0; stroke: #ff0000; stroke-width: 2"/>
   </g>
   <g id="patch_24">
    <path d="M 771.53 1033.72 
L 771.53 589.92 
" style="fill: none; stroke: #000000; stroke-width: 0.8; stroke-linejoin: miter; stroke-linecap: square"/>
   </g>
   <g id="patch_25">
    <path d="M 1428.54 1033.72 
L 1428.54 589.92 
" style="fill: none; stroke: #000000; stroke-width: 0.8; stroke-linejoin: miter; stroke-linecap: square"/>
   </g>
   <g id="patch_26">
    <path d="M 771.53 1033.72 
L 1428.54 1033.72 
" style="fill: none; stroke: #000000; stroke-width: 0.8; stroke-linejoin: miter; stroke-linecap: square"/>
   </g>
   <g id="patch_27">
    <path d="M 771.53 589.92 
L 1428.54 589.92 
" style="fill: none; stroke: #000000; stroke-width: 0.8; stroke-linejoin: miter; stroke-linecap: square"/>
   </g>
   <g id="text_73">
    <!-- IQR Over Coefficients -->
    <g transform="translate(1009.488906 583.92) scale(0.15 -0.15)">
     <defs>
      <path id="DejaVuSans-Bold-49" d="M 588 4666 
L 1791 4666 
L 1791 0 
L 588 0 
L 588 4666 
z
" transform="scale(0.015625)"/>
      <path id="DejaVuSans-Bold-51" d="M 2847 -84 
L 2753 -84 
Q 1600 -84 959 553 
Q 319 1191 319 2328 
Q 319 3463 958 4106 
Q 1597 4750 2719 4750 
Q 3853 4750 4486 4112 
Q 5119 3475 5119 2328 
Q 5119 1541 4783 972 
Q 4447 403 3816 116 
L 4756 -934 
L 3609 -934 
L 2847 -84 
z
M 2719 3878 
Q 2169 3878 1866 3472 
Q 1563 3066 1563 2328 
Q 1563 1578 1859 1179 
Q 2156 781 2719 781 
Q 3272 781 3575 1187 
Q 3878 1594 3878 2328 
Q 3878 3066 3575 3472 
Q 3272 3878 2719 3878 
z
" transform="scale(0.015625)"/>
      <path id="DejaVuSans-Bold-52" d="M 2297 2597 
Q 2675 2597 2839 2737 
Q 3003 2878 3003 3200 
Q 3003 3519 2839 3656 
Q 2675 3794 2297 3794 
L 1791 3794 
L 1791 2597 
L 2297 2597 
z
M 1791 1766 
L 1791 0 
L 588 0 
L 588 4666 
L 2425 4666 
Q 3347 4666 3776 4356 
Q 4206 4047 4206 3378 
Q 4206 2916 3982 2619 
Q 3759 2322 3309 2181 
Q 3556 2125 3751 1926 
Q 3947 1728 4147 1325 
L 4800 0 
L 3519 0 
L 2950 1159 
Q 2778 1509 2601 1637 
Q 2425 1766 2131 1766 
L 1791 1766 
z
" transform="scale(0.015625)"/>
     </defs>
     <use xlink:href="#DejaVuSans-Bold-49"/>
     <use xlink:href="#DejaVuSans-Bold-51" x="37.207031"/>
     <use xlink:href="#DejaVuSans-Bold-52" x="122.216797"/>
     <use xlink:href="#DejaVuSans-Bold-20" x="199.21875"/>
     <use xlink:href="#DejaVuSans-Bold-4f" x="234.033203"/>
     <use xlink:href="#DejaVuSans-Bold-76" x="319.042969"/>
     <use xlink:href="#DejaVuSans-Bold-65" x="384.228516"/>
     <use xlink:href="#DejaVuSans-Bold-72" x="452.050781"/>
     <use xlink:href="#DejaVuSans-Bold-20" x="501.367188"/>
     <use xlink:href="#DejaVuSans-Bold-43" x="536.181641"/>
     <use xlink:href="#DejaVuSans-Bold-6f" x="609.570312"/>
     <use xlink:href="#DejaVuSans-Bold-65" x="678.271484"/>
     <use xlink:href="#DejaVuSans-Bold-66" x="746.09375"/>
     <use xlink:href="#DejaVuSans-Bold-66" x="789.599609"/>
     <use xlink:href="#DejaVuSans-Bold-69" x="833.105469"/>
     <use xlink:href="#DejaVuSans-Bold-63" x="867.382812"/>
     <use xlink:href="#DejaVuSans-Bold-69" x="926.660156"/>
     <use xlink:href="#DejaVuSans-Bold-65" x="960.9375"/>
     <use xlink:href="#DejaVuSans-Bold-6e" x="1028.759766"/>
     <use xlink:href="#DejaVuSans-Bold-74" x="1099.951172"/>
     <use xlink:href="#DejaVuSans-Bold-73" x="1147.753906"/>
    </g>
   </g>
  </g>
  <g id="text_74">
   <!-- Full Segment Statistics Over Coefficients- turn vs towards -->
   <g transform="translate(1475.628125 36.796875) scale(0.2 -0.2)">
    <defs>
     <path id="DejaVuSans-53" d="M 3425 4513 
L 3425 3897 
Q 3066 4069 2747 4153 
Q 2428 4238 2131 4238 
Q 1616 4238 1336 4038 
Q 1056 3838 1056 3469 
Q 1056 3159 1242 3001 
Q 1428 2844 1947 2747 
L 2328 2669 
Q 3034 2534 3370 2195 
Q 3706 1856 3706 1288 
Q 3706 609 3251 259 
Q 2797 -91 1919 -91 
Q 1588 -91 1214 -16 
Q 841 59 441 206 
L 441 856 
Q 825 641 1194 531 
Q 1563 422 1919 422 
Q 2459 422 2753 634 
Q 3047 847 3047 1241 
Q 3047 1584 2836 1778 
Q 2625 1972 2144 2069 
L 1759 2144 
Q 1053 2284 737 2584 
Q 422 2884 422 3419 
Q 422 4038 858 4394 
Q 1294 4750 2059 4750 
Q 2388 4750 2728 4690 
Q 3069 4631 3425 4513 
z
" transform="scale(0.015625)"/>
     <path id="DejaVuSans-67" d="M 2906 1791 
Q 2906 2416 2648 2759 
Q 2391 3103 1925 3103 
Q 1463 3103 1205 2759 
Q 947 2416 947 1791 
Q 947 1169 1205 825 
Q 1463 481 1925 481 
Q 2391 481 2648 825 
Q 2906 1169 2906 1791 
z
M 3481 434 
Q 3481 -459 3084 -895 
Q 2688 -1331 1869 -1331 
Q 1566 -1331 1297 -1286 
Q 1028 -1241 775 -1147 
L 775 -588 
Q 1028 -725 1275 -790 
Q 1522 -856 1778 -856 
Q 2344 -856 2625 -561 
Q 2906 -266 2906 331 
L 2906 616 
Q 2728 306 2450 153 
Q 2172 0 1784 0 
Q 1141 0 747 490 
Q 353 981 353 1791 
Q 353 2603 747 3093 
Q 1141 3584 1784 3584 
Q 2172 3584 2450 3431 
Q 2728 3278 2906 2969 
L 2906 3500 
L 3481 3500 
L 3481 434 
z
" transform="scale(0.015625)"/>
     <path id="DejaVuSans-63" d="M 3122 3366 
L 3122 2828 
Q 2878 2963 2633 3030 
Q 2388 3097 2138 3097 
Q 1578 3097 1268 2742 
Q 959 2388 959 1747 
Q 959 1106 1268 751 
Q 1578 397 2138 397 
Q 2388 397 2633 464 
Q 2878 531 3122 666 
L 3122 134 
Q 2881 22 2623 -34 
Q 2366 -91 2075 -91 
Q 1284 -91 818 406 
Q 353 903 353 1747 
Q 353 2603 823 3093 
Q 1294 3584 2113 3584 
Q 2378 3584 2631 3529 
Q 2884 3475 3122 3366 
z
" transform="scale(0.015625)"/>
     <path id="DejaVuSans-4f" d="M 2522 4238 
Q 1834 4238 1429 3725 
Q 1025 3213 1025 2328 
Q 1025 1447 1429 934 
Q 1834 422 2522 422 
Q 3209 422 3611 934 
Q 4013 1447 4013 2328 
Q 4013 3213 3611 3725 
Q 3209 4238 2522 4238 
z
M 2522 4750 
Q 3503 4750 4090 4092 
Q 4678 3434 4678 2328 
Q 4678 1225 4090 567 
Q 3503 -91 2522 -91 
Q 1538 -91 948 565 
Q 359 1222 359 2328 
Q 359 3434 948 4092 
Q 1538 4750 2522 4750 
z
" transform="scale(0.015625)"/>
     <path id="DejaVuSans-76" d="M 191 3500 
L 800 3500 
L 1894 563 
L 2988 3500 
L 3597 3500 
L 2284 0 
L 1503 0 
L 191 3500 
z
" transform="scale(0.015625)"/>
     <path id="DejaVuSans-43" d="M 4122 4306 
L 4122 3641 
Q 3803 3938 3442 4084 
Q 3081 4231 2675 4231 
Q 1875 4231 1450 3742 
Q 1025 3253 1025 2328 
Q 1025 1406 1450 917 
Q 1875 428 2675 428 
Q 3081 428 3442 575 
Q 3803 722 4122 1019 
L 4122 359 
Q 3791 134 3420 21 
Q 3050 -91 2638 -91 
Q 1578 -91 968 557 
Q 359 1206 359 2328 
Q 359 3453 968 4101 
Q 1578 4750 2638 4750 
Q 3056 4750 3426 4639 
Q 3797 4528 4122 4306 
z
" transform="scale(0.015625)"/>
     <path id="DejaVuSans-66" d="M 2375 4863 
L 2375 4384 
L 1825 4384 
Q 1516 4384 1395 4259 
Q 1275 4134 1275 3809 
L 1275 3500 
L 2222 3500 
L 2222 3053 
L 1275 3053 
L 1275 0 
L 697 0 
L 697 3053 
L 147 3053 
L 147 3500 
L 697 3500 
L 697 3744 
Q 697 4328 969 4595 
Q 1241 4863 1831 4863 
L 2375 4863 
z
" transform="scale(0.015625)"/>
     <path id="DejaVuSans-2d" d="M 313 2009 
L 1997 2009 
L 1997 1497 
L 313 1497 
L 313 2009 
z
" transform="scale(0.015625)"/>
    </defs>
    <use xlink:href="#DejaVuSans-46"/>
    <use xlink:href="#DejaVuSans-75" x="52.019531"/>
    <use xlink:href="#DejaVuSans-6c" x="115.398438"/>
    <use xlink:href="#DejaVuSans-6c" x="143.181641"/>
    <use xlink:href="#DejaVuSans-20" x="170.964844"/>
    <use xlink:href="#DejaVuSans-53" x="202.751953"/>
    <use xlink:href="#DejaVuSans-65" x="266.228516"/>
    <use xlink:href="#DejaVuSans-67" x="327.751953"/>
    <use xlink:href="#DejaVuSans-6d" x="391.228516"/>
    <use xlink:href="#DejaVuSans-65" x="488.640625"/>
    <use xlink:href="#DejaVuSans-6e" x="550.164062"/>
    <use xlink:href="#DejaVuSans-74" x="613.542969"/>
    <use xlink:href="#DejaVuSans-20" x="652.751953"/>
    <use xlink:href="#DejaVuSans-53" x="684.539062"/>
    <use xlink:href="#DejaVuSans-74" x="748.015625"/>
    <use xlink:href="#DejaVuSans-61" x="787.224609"/>
    <use xlink:href="#DejaVuSans-74" x="848.503906"/>
    <use xlink:href="#DejaVuSans-69" x="887.712891"/>
    <use xlink:href="#DejaVuSans-73" x="915.496094"/>
    <use xlink:href="#DejaVuSans-74" x="967.595703"/>
    <use xlink:href="#DejaVuSans-69" x="1006.804688"/>
    <use xlink:href="#DejaVuSans-63" x="1034.587891"/>
    <use xlink:href="#DejaVuSans-73" x="1089.568359"/>
    <use xlink:href="#DejaVuSans-20" x="1141.667969"/>
    <use xlink:href="#DejaVuSans-4f" x="1173.455078"/>
    <use xlink:href="#DejaVuSans-76" x="1252.166016"/>
    <use xlink:href="#DejaVuSans-65" x="1311.345703"/>
    <use xlink:href="#DejaVuSans-72" x="1372.869141"/>
    <use xlink:href="#DejaVuSans-20" x="1413.982422"/>
    <use xlink:href="#DejaVuSans-43" x="1445.769531"/>
    <use xlink:href="#DejaVuSans-6f" x="1515.59375"/>
    <use xlink:href="#DejaVuSans-65" x="1576.775391"/>
    <use xlink:href="#DejaVuSans-66" x="1638.298828"/>
    <use xlink:href="#DejaVuSans-66" x="1673.503906"/>
    <use xlink:href="#DejaVuSans-69" x="1708.708984"/>
    <use xlink:href="#DejaVuSans-63" x="1736.492188"/>
    <use xlink:href="#DejaVuSans-69" x="1791.472656"/>
    <use xlink:href="#DejaVuSans-65" x="1819.255859"/>
    <use xlink:href="#DejaVuSans-6e" x="1880.779297"/>
    <use xlink:href="#DejaVuSans-74" x="1944.158203"/>
    <use xlink:href="#DejaVuSans-73" x="1983.367188"/>
    <use xlink:href="#DejaVuSans-2d" x="2035.466797"/>
    <use xlink:href="#DejaVuSans-20" x="2071.550781"/>
    <use xlink:href="#DejaVuSans-74" x="2103.337891"/>
    <use xlink:href="#DejaVuSans-75" x="2142.546875"/>
    <use xlink:href="#DejaVuSans-72" x="2205.925781"/>
    <use xlink:href="#DejaVuSans-6e" x="2245.289062"/>
    <use xlink:href="#DejaVuSans-20" x="2308.667969"/>
    <use xlink:href="#DejaVuSans-76" x="2340.455078"/>
    <use xlink:href="#DejaVuSans-73" x="2399.634766"/>
    <use xlink:href="#DejaVuSans-20" x="2451.734375"/>
    <use xlink:href="#DejaVuSans-74" x="2483.521484"/>
    <use xlink:href="#DejaVuSans-6f" x="2522.730469"/>
    <use xlink:href="#DejaVuSans-77" x="2583.912109"/>
    <use xlink:href="#DejaVuSans-61" x="2665.699219"/>
    <use xlink:href="#DejaVuSans-72" x="2726.978516"/>
    <use xlink:href="#DejaVuSans-64" x="2766.341797"/>
    <use xlink:href="#DejaVuSans-73" x="2829.818359"/>
   </g>
  </g>
 </g>
 <defs>
  <clipPath id="p5caa2e9cc3">
   <rect x="50.87" y="82.32" width="657.01" height="443.8"/>
  </clipPath>
  <clipPath id="pc20d2013b7">
   <rect x="771.53" y="82.32" width="657.01" height="443.8"/>
  </clipPath>
  <clipPath id="pa8637d9d2e">
   <rect x="1492.19" y="82.32" width="657.01" height="443.8"/>
  </clipPath>
  <clipPath id="p812a9d37ff">
   <rect x="50.87" y="589.92" width="657.01" height="443.8"/>
  </clipPath>
  <clipPath id="p73f09e2db9">
   <rect x="771.53" y="589.92" width="657.01" height="443.8"/>
  </clipPath>
 </defs>
</svg>
